<?xml version="1.0" encoding="UTF-8"?>
<svg id="Capa_1" data-name="Capa 1" xmlns="http://www.w3.org/2000/svg" xmlns:xlink="http://www.w3.org/1999/xlink" viewBox="0 0 503.34 375.78">
  <defs>
    <style>
      .cls-1 {
        fill: none;
      }

      .cls-2 {
        fill: #e4262a;
      }

      .cls-3 {
        fill: url(#linear-gradient-2);
      }

      .cls-4 {
        fill: url(#linear-gradient);
      }

      .cls-5 {
        fill: #224594;
      }

      .cls-6 {
        fill: #e4282a;
      }
    </style>
    <clipPath id="clippath">
      <path class="cls-1" d="M301.76,33.49v79.01c0,6.5-5.25,11.76-11.73,11.76h-10.8v-52.03l-19.85,26.24c-3.72,4.92-11.1,4.91-14.81-.02l-19.73-26.23v40.27c0,6.5-5.25,11.76-11.73,11.76h-11.88c-.17-.02-.33-.03-.51-.03-2.4,0-4.34,1.95-4.34,4.36,0,1.25.52,2.37,1.36,3.16.15.18.32.35.51.51,3.81,3.23,27.71,18.45,53.87,18.45,80.76-2.19,112.02-74.43,98.46-123.71-10.38,10.71-31.05,13.22-48.84,6.49"/>
    </clipPath>
    <linearGradient id="linear-gradient" x1="211.44" y1="56.74" x2="258.25" y2="95.2" gradientUnits="userSpaceOnUse">
      <stop offset=".12" stop-color="#e4262a"/>
      <stop offset=".65" stop-color="#bb2327"/>
      <stop offset=".97" stop-color="#a72327"/>
    </linearGradient>
    <linearGradient id="linear-gradient-2" x1="274.36" y1="79.65" x2="318.93" y2="136.21" gradientUnits="userSpaceOnUse">
      <stop offset=".14" stop-color="#e4262a" stop-opacity="0"/>
      <stop offset=".22" stop-color="#e42c2f" stop-opacity=".03"/>
      <stop offset=".33" stop-color="#e63e3e" stop-opacity=".12"/>
      <stop offset=".47" stop-color="#ea5c56" stop-opacity=".26"/>
      <stop offset=".63" stop-color="#ef8678" stop-opacity=".46"/>
      <stop offset=".81" stop-color="#f5bba4" stop-opacity=".71"/>
      <stop offset="1" stop-color="#fdf9d6"/>
    </linearGradient>
  </defs>
  <g>
    <path class="cls-6" d="M266.79,348.22c.1,0,.1-.19,0-.19v.19Z"/>
    <path class="cls-6" d="M282.82,340.11h0s0-.01,0-.01c0,0,0,0,0,.01Z"/>
    <path class="cls-6" d="M254.49,328.02c.02-.23.05-.46.07-.69.03-1.36.03-2.71.02-4.07-.22.02-.37.48-.78.45.13.28-.14.51-.5.74-.19.02-.06-.48-.25-.46-.16.31-.32.62-.31.72-.22-.17-.51.65-.93.4.03.29-.26.32-.33.53-.29.03-.23-.27-.41-.15-.17.22-.32.62-.53.45-.13.6-1.09.71-1.52,1.25-.61-3.55-2.46-6.08-4.65-8.08.01.1.23.27.03.29-.31-.16-.32-.26-.06-.48-.13-.28-.52-.23-.56-.62-3.67-1.24-9.93-1.2-10.94,2.73.1-.01.07-.2.17-.22,0,0-.01-.1.08-.11,0,0,.01.1-.08.11.02.19-.07.2-.06.3.39-.04.32-.63.55-.36-.78,1.52-1.35,3.22-1.76,5.05-.19.24-.35.49-.44.81-1.16.88-1.74,2.15-2.71,3.22-.1,0-.1-.19-.2-.19-3,4.39-6.29,8.48-9.68,12.48-.19.1.1.29-.1.29-.58-.19-.68.88-1.16.98.39,0,.1.49-.1.29,0,.19-.29.49-.39.29.1-.1.29-.29.39-.29,0-.1.1-.1.1-.29-.97.88-1.94,1.66-2.91,2.54-.1-.1-.2-.1-.39-.1-.19.68-.97.68-1.46,1.07-.98-.97-1.66-1.84-1.66-3.2-1.37-2.52-.62-9.04.05-12.35.48-.78.87-1.85.87-2.92.39.1.19-.49.39-.59,0-.87.97-2.05,1.35-3.21.1-.2.1-.49.1-.58.1-.19.29-.2.29-.39.77-1.07,1.16-2.53,1.93-3.7.29-.58,1.36-1.66,1.16-1.95,0,.19,0,.29-.29.2q.1-.2.29-.2c.39-.97,1.26-1.76,2.13-2.34,1.95,1.74.99,6.32,1.98,8.94,1.26-1.07,3.89-.6,3.68-3.42.1-.1.39,0,.39-.39,0-1.85.08-4.18-.6-5.74-.49-.29-.88-.78-1.37-1.26-3.7-1.83-6.61,1-10.21.91-.1.88-1.16,1.75-1.84,2.73.1-.1,0-.19-.2-.19,0,.19,0,.39,0,.58-.68.2-.58,1.07-1.36,1.37-.58,1.95-1.84,2.83-2.22,4.97-.68.78-1.26,1.95-1.25,3.21-.77,1.56-1.25,3.89-1.54,5.55.29,0,.39,0,.39.1-.19.1,0,.68-.19.78-.19,0,0-.2-.2-.29-.29.49.58.48,0,.88-.19.19.19-.29-.1-.29-.19.58.1.58.3.87-.77,1.07-.77,2.73-.38,3.31,0-.1.1-.19.19-.1q-.1.1-.19.1c.1.58-.39.97-.09,1.65,0-.1,0-.39.19-.39,0,.29,0,.39-.19.39,0,.19.29.68.2.78-.1,0-.2-.29-.29-.1.2.39.59.58.3,1.07.1,0,.29.1.29.19-.19.58.59,1.26.3,2.04.1.78,1.17,1.55.98,2.14.19,0,.1,0,.49,0,1.85,1.55,3.71,3.49,6.82,3.48,1.46.38,2.92-.11,4.28-.6,0,.29,0,.39.1.39.19-.2,0-.2,0-.49,5.34-2.55,8.14-7.61,11.63-12,.24-.69.56-1.23.89-1.75-.03,1.51.06,3.16.43,4.77.84,2.15,2.43,3.24,4.03,4.33,1.22,1.23,3.09,1.31,5.31,1.05-.01-.1-.03-.29.06-.3.19-.02-.04.49.23.27,1.69-.59,3.04-1.62,4.2-2.64-.02-.19.17-.22.03-.59.53.33,1.58-1.55,2-2.19.55-1.14.95-2.75,1.44-3.59-.04-.39-.46-.63-.09-.77.04-.49.19-.02.45-.35-.06-.48-.06-1.36.26-1.99.1-.01.03.29.13.28-.03-.29-.08-.68-.1-.87,2.08-1.33,3.92-2.88,5.65-4.48ZM251.71,326c-.07.2-.02-.19-.04-.39.39-.04.02.19.04.39ZM213.35,315.31c-.19.68-1.07,1.37-1.45,2.05.09-.68.87-1.46,1.45-2.05ZM211.12,318.04c.39.19-.29.29-.19.49-.39-.1.1-.2.19-.49ZM204.68,337.71c-.19,0-.1-1.26,0-1.65.29.1.1,1.26,0,1.65ZM205.24,332.84c-.29-.58.09-1.36.09-2.04.39.39-.19,1.27-.09,2.04ZM205.53,330.31c.1-.19,0-.68.29-.68-.1.29,0,.68-.29.68ZM205.91,329.44c-.29-.39.29-1.17.29-1.65.49.19-.29,1.07-.29,1.65ZM206.68,327.2c-.49-.1,0-.19,0-.49.29.1,0,.39,0,.49ZM222.48,338.33c-.39-.1.1-.19.1-.29.19.1-.1.19-.1.29ZM222.67,338.03c0-.39.39-.49.39-.78.2.19-.19.58-.39.78ZM226.74,332.77c0-.29.1-.29.1-.49.39,0,.1.49-.1.49ZM227.32,331.89c0-.2.2-.1.19-.29.39,0,.2.29-.19.29ZM228.58,330.62c-.2-.1,0-.2,0-.39.1.19,0,.29,0,.39ZM231.22,340.12c.29-.03.32.26.35.45-.1.01-.31-.16-.35-.45ZM231.56,339.69c-.41-.15.04.39-.35.33.14-.51-.25-.46-.28-.75.02-.69-.3-1.73-.31-2.7-.03-.58,0-1.18.04-1.76.1-.15.2-.31.3-.47.03.08.05.15.11.22-.04-.13-.04-.26-.02-.38.08-.13.15-.26.22-.39-.11,1.95-.44,4.17.29,5.91.16.57.33,1.14.59,1.69-.33-.35-.62-1.1-.59-1.69ZM232.44,325.01c-.15.17-.29.33-.44.49.13-.41.24-.82.24-1.16.59-.85.88-3.43,1.64-3.62l.02.19c.29-.03.14-.51.52-.55-.74,1.68-1.41,3.06-1.98,4.64ZM240.07,340.47l-.02-.19c.47-.15-.32.62.02.19ZM240.51,340.03h-.1q.01.11-.09.12s-.01-.1.09-.11c.3-.82,1.01-1.39.99-2.46-.86,1.86-1.94,3.55-3.57,4.72.29-.03-.04.49,0,0-.1.01-.17.22-.27.23.02.19-.41-.15,0,0-.25-.46-.38.14-.77.09-1.61-1.19-1.76-4.2-1.7-6.27,1.25.64,3.36,1.08,5.19.87.49.04.94-.31,1.19.16.29-.03.24-.42.54-.45-.46,1.13-.91,2.26-1.5,3.11ZM241.4,332.48c.02.19-.06.3-.15.41-.3-.06-.04-.39.15-.41ZM243.49,331.07c-.18-.67.13-.6.05-1.28-.66.18.07,1.46-.7,1.55.02.19.04.39-.05.4-.29.03-.02-.19-.03-.29-.47.15.16.57-.53.55.03.29-.41-.15,0,0-.02-.19.07-.2.07-.2-.48.06-.35.33-.52.55-.1.01-.01-.1-.02-.19-.48.06-.45.35-.91.59.12.18.4.05.12.18-1.27.05-2.37,1.55-4.16,1.26-1.52-2.96-.33-6.23.2-8.44.74-2.04,1.72-3.72,2.8-5.41.61.22.69.9,1,1.06.11-.7-.67-.71-.74-1.29.59.03,1.5,1.1,1.4,1.99-.21-.17-.26-.56-.67-.71.48.73.93,1.26,1.2,1.92.15-.41.14-.51-.1-.87.72.31.75,1.38,1.29,1.81.5,1.8,1.21,5.34.3,6.82Z"/>
    <path class="cls-6" d="M306.99,316.4c.1,0,.2.1.2.2-.1,0-.2-.1-.2-.2-.2,0,0-.2,0,0Z"/>
    <path class="cls-6" d="M306.6,316.4c.2-.2.2.4,0,.2,0-.1,0-.2,0-.2Z"/>
    <path class="cls-6" d="M219.67,341.84q-.1,0-.29,0,0-.1,0-.2.19,0,.29,0t0,.2Z"/>
    <path class="cls-6" d="M222.09,339.01q-.1,0-.19,0t0-.2q.1,0,.19,0,0,.1,0,.2Z"/>
    <path class="cls-6" d="M224.22,335.99c0-.1.1-.29.19-.29h.1c-.1.1-.1.29-.29.29Z"/>
    <path class="cls-6" d="M225.38,334.33c0-.29.39,0,0,0,.1.49-.29.2,0,0Z"/>
    <path class="cls-6" d="M225.57,334.13c0-.1.1-.1.19-.2.29,0,0,.29-.19.2Z"/>
    <path class="cls-6" d="M226.64,333.06c-.1,0-.1.1-.1.1,0,0-.19,0-.29,0,0,0,0-.1,0-.2.1.1.1,0,.1,0q.2,0,.29,0v.1Z"/>
    <path class="cls-6" d="M231.28,333.53s-.04,0-.06,0c0,.1-.05.15-.11.16,0-.05-.03-.1-.06-.15.04,0,.08-.01.17-.01.02-.04.05-.08.07-.11,0,.04,0,.08,0,.11Z"/>
    <path class="cls-6" d="M229.64,328.87q.1-.1.39-.1-.19.1-.39.1Z"/>
    <path class="cls-6" d="M238.85,341.78c.01.1.02.19-.17.22q-.01-.1-.02-.19t.19-.02c-.02-.19.1-.01,0,0Z"/>
    <path class="cls-6" d="M239.21,341.55c.02.19-.19.02,0,0h0Z"/>
    <path class="cls-6" d="M243.98,330.23c-.01-.1.09-.11.18-.12.01.1-.1.01-.18.12Z"/>
    <path class="cls-6" d="M247.64,337.34h-.1c.13.29-.29.04,0,.01-.01-.1.06-.3.05-.4.1-.01.13.28.04.39Z"/>
    <path class="cls-6" d="M252.92,324.59c-.01-.1.18-.12.19-.02.01.1,0,0-.19.02Z"/>
    <polygon class="cls-6" points="300.26 327.97 300.27 327.97 300.27 327.98 300.26 327.97"/>
    <path class="cls-6" d="M300.76,327.37c-.09,0-.11.12-.14.27-.08-.06-.08-.34.14-.27h0Z"/>
    <path class="cls-6" d="M300.79,327.5s.03-.08.05-.12c.08.03,0,.11-.05.12Z"/>
    <path class="cls-6" d="M137.17,320.04c-.33-.22-1.1-.66-.77-1.32-.44.11-.99-.33-1.54-.77-.33,0-1.32.11-1.65-.21-.99.33-1.21.11-1.98,0,.11.66-.55-.33-.66.22.33,0,.22.44.33.55-.43,1.65-1.42,2.76-1.97,4.3.44-.33.55-.99.99-1.43-.11,1.21-1.31,1.88-.98,2.64-.22,0-.11-.22-.33-.11-.11.55-.33,1.32-.66,1.21-.11.22.33.33.11.55-.22-.44-.22.11-.55,0,0,.22.11.22.33.33-.55-.22-.22.44-.55.33,0,.99-.76,1.65-1.31,1.99-.98,2.31-2.52,3.97-3.83,5.95-.11-.44.11-.44,0-.88-1.97,2.43-3.39,5.51-5.8,7.61-.57-6.38,2.38-12.66,2.57-19.7-.66-.66-1.21-1.21-2.1-1.42-1.32.22-2.86.12-4.18.78l-.21,2.53c.22-.11.22-.99.44-.66-1.2,3.31-1.41,6.28-2.17,10.02-.21,2.86-.96,7.82.37,10.34-.77-.55-.78-2.2-1-2.97.11.33,0,.44-.22.44.22-.11.22-.33-.11-.44-.11.55.33.44.33.77.33.22,0,.44,0,.66.22.33.11.88.45,1.54.33.33.88.44,1.32.88.55.55.99,1.21,1.21,1.43.99.99,2.65,1.42,4.3,1.64,5.28-1.67,7.24-7.29,10.63-10.93-.6,2.94.39,5.78,1.41,7.75.08.06.15.1.15.27,0,0-.01,0-.02-.01.04.08.08.16.13.23,1.76.87,2.65,2.3,4.52,2.95,1.21-.11,2.53-.12,2.63-1.55-.22-.66-.78-1.32-1-1.87-.66,0-1.1-.22-1.32-.66-.57-5.39.84-11.89,2.03-16.73-.34-1.76,1.31-3.86.64-6.27ZM111.03,335.76c-.11,0,0-.44,0-.55.44-.11.11.55,0,.55ZM111.14,334.77c-.22-.44.22-1.1.21-1.65.33.22-.22,1.32-.21,1.65ZM111.35,332.79q0-.11,0-.22c.22,0,.22.22.22.44-.11,0-.11-.22-.22-.22ZM111.68,331.47c-.11,0,0-.22-.11-.33.44.11.11.11.11.33ZM112.74,321.34c-.11,0,0-.22-.11-.44.33-.11.22.33.11.44ZM112.63,321.56c0-.11.11,0,.11-.11,0,.11-.11.11-.11.11ZM112.75,322c.11,0,.22.11.22.22-.22,0-.22-.11-.22-.22ZM112.11,329.04q0-.22,0-.33c.22-.11.22.44,0,.33ZM112.22,327.39l.11-.11c.33,0,.11.44-.11.11ZM112.44,327.17c-.22-.66.43-1.65.54-2.31.11.66-.21,1.65-.54,2.31ZM112.98,324.64c0-.11.11-.11.33-.11,0,.11-.22.11-.33.11ZM113.63,323.1c-.11.22-.11.44-.33.44.11-.22.11-.44.33-.44ZM130.78,319.41c.11,0,.11.66-.11.44,0-.11.11-.33.11-.44ZM117.98,339.92h-.22c-.22.44-.77,1.21-.99,1.21.33-.44.55-.88.99-1.21q0-.11.22-.22c.11,0,0,.22,0,.22ZM118.2,339.7c-.22-.33.11-.66.44-.66-.22.22-.33.33-.44.66ZM118.97,338.37c.76-1.65,1.97-2.76,2.96-4.3-.22,1.1-1.53,1.99-1.86,3.2-.55.11-.44.99-1.1,1.1ZM130.79,320.62s0,.11-.11.11c0,.33,0,.44-.11.55-.33-.11,0-.55.11-.55q0-.11.11-.11c-.11-.55.33-.11,0,0Z"/>
    <path class="cls-6" d="M110.61,328.91c.1,0,.3,0,.3-.1-.2,0-.3,0-.3.1Z"/>
    <path class="cls-6" d="M111.2,327.52c-.2,0-.2.2-.3.4.2,0,.2-.2.3-.4Z"/>
    <path class="cls-6" d="M166.05,344.7c-.41-.2-.2.2-.61.21,0-.41.41-.21.2-.61-.1-.2-.1,0-.41,0,0-.2.3-.41.2-.61-.81-.1-1.12,1.12-2.24,1.03-1.24-4.27-.24-9.66-.25-13.83-.11-1.12-.22-3.25-.02-4.48-.42-4.58-1.96-8.23-6.74-8.12-1.73-.81-4.37.02-4.98,1.44-.71.31-1.32,1.63-2.23,2.25-.31-.41,0-1.32-.21-1.93-.71-.71-1.94-.81-2.75-1.11,0,.2,0,.41-.1.41.1-.1,0-.1-.1-.1-.81.31-2.71-.6-2.44.72,0,0-5.96,28.01-.42,29.92.71,0,.71.2,1.43.1,0-.2.1-.2.41-.21,0-.3.1-.31.2-.41,1.2-4.99,2.63-9.28,3.93-14.17.41.1.2-.41.2-.51.41-.1.81-.92.81-1.83,2.02-3.36,3.64-7.24,6.27-9.99,0,.2.1.71.41.51-.31-.2,0-.61,0-.81.72,1.42-.19,3.36.63,4.27.11.91-.6,1.53-.3,2.34.3-.2-.1-.81.3-.81-.2.92.21,1.73-.19,2.54.2.2.31.61,0,.71-.1-.1-.1-.51,0-.71v-.1c-.21-.3.2-1.63-.11-1.32-.1.71,0,1.42-.2,2.04.51.51,0,1.32.21,2.24h.1c0-.05,0-.11,0-.16,0,0,0,.03,0,.03.09-.02.14-.08.17-.14.11.88.13,1.75-.15,2.32,0-.1,0-.2-.1-.2-.1.41-.1.92.11,1.32,0-.31-.11-.91,0-1.02.31,1.32.31,2.75.22,4.58-.21-.81.1-1.83-.31-2.75-.1,1.32.41,2.13.01,2.95.31.2.51,1.02.31,1.32.41.51.72,1.52,1.03,2.34.92,1.01,2.34,1.42,3.26,2.43.41.2.92.4,1.43.71,1.02,0,1.42-.11,2.03.09.3-.31.61-.61.91-.82-.61-.2.2-.51.2-.81-.31-.2,0-.61-.11-1.22ZM157.06,332.9s-.02.11-.03.17c-.02-.3-.03-.58.03-.75.04.24.08.49.11.74-.03-.06-.07-.11-.11-.16Z"/>
    <path class="cls-6" d="M174.54,343.92c-1.03-5,.35-8.7.35-8.7,10.25,2.37,14.16-7.16,14.14-10.09-.03-2.93-1.23-5.53-3.35-6.74-1.8-.72-3.66-.86-5.13-1.09-.21-.26-.69-.2-.8-.43-1.55.15-2.13,1.88-3.49,1.88-2.43,2.45-4.73,6.18-6.15,10.6.48-1.78.98-3.55,1.49-5.39q-.39.16-.57.29c-.13.53,0,1.34-.34,1.8-.12-.09.34-.46-.06-.4-.04.42-.54,1.21-.22,1.27,0,0,.19-.13.2-.03l-.2.03c-.05.32.09.6-.12.53-.12-.09.17-.23-.05-.3-.29.77.05,1.02-.23,1.89-.15.33-.06.94-.32,1.28-.15-.29.33-.56-.12-.8.05.3-.12.53.04.92-.41.68-.53,1.93-.42,2.64,0-.02.01-.04.02-.06-.03.17-.07.34-.1.51-.12.08-.13.17-.05.24-.02.12-.05.24-.07.36-.03.02-.03.07-.02.12,0,.05-.01.1-.02.15-.08.18-.19.73-.07.78-.01.1-.02.21-.03.31,0,0,0,0,0,0,0,.02,0,.03,0,.04-.06.55-.71,8.31,1.61,12.11,2.32,3.81,7.31,4.41,11.26,1.15,3.83-3.16,5.51-6.2,6.91-11.18-7.59,9.54-13.04,11.29-14.06,6.29ZM176.43,329.57c1.18-4.83,5.52-9.14,6.55-9.7,1.36-.73,1.8.8,1.74,2.32-.06,1.52-.35,9.88-9.65,12.69.53-1.68.52-3.62,1.51-4.73-.01-.22-.55-.48-.14-.58ZM170.65,326.58l.02.1c-.1.02-.13-.19-.16-.39.1-.02.13.19.15.29ZM169.35,332.91s0,.09,0,.13c-.02-.05-.03-.1,0-.13ZM169.32,333.4c-.01.09-.03.15-.07.16-.03-.12.01-.16.07-.16ZM169.12,333.83s.11.04.18.06c.03.18-.14.18-.26.22.02-.1.05-.19.08-.28ZM168.98,335.17s.04.06.06.08c-.03.15-.04.32.04.48-.22-.23-.19-.38-.13-.56.01-.01.01,0,.03,0ZM169.41,334.73c-.05-.06-.07-.09-.1-.13.06-.41.13-.81.19-1.2.07,0,.12-.01.11-.11-.04-.02-.06-.05-.09-.07.01-.1.03-.2.04-.29.21.14.1-1.04.45-1.12.05.91-.47,1.86-.61,2.92ZM169.56,332.48c-.04-.71.18-1.84.64-2.31-.12-.44.06-.58.05-.89.41.42-.07.48.05.81.28-.22.24-.83.42-1.07-.18.25-.32-.39-.01-.2v.2c.36-.7.04-1.09.4-1.68.2.16-.09.17.02.3.2.16.09-.17.17-.45-.3-.19.25-.73.32-1.1.4.11-.08.28.02.41.37-.29.32-1.1.49-1.55q.19-.04.58-.03c-1.11,2.57-2.24,4.94-3.16,7.57Z"/>
    <path class="cls-6" d="M298.26,330.57c-.19,0-.48.48-.19.58,0-.19.19-.19.19-.58Z"/>
    <path class="cls-6" d="M297.59,331.93c.1-.19,0-.29.19-.39-.19-.1-.48.2-.19.39Z"/>
    <path class="cls-6" d="M297.3,331.54q-.1,0-.19,0t0,.19q.1,0,.19,0,0-.1,0-.19Z"/>
    <path class="cls-6" d="M387.55,331.84c0-.68.87-1.46.58-2.04-.19.88-.77,1.17-.58,2.04Z"/>
    <path class="cls-6" d="M374.35,318.08c0,.1-.1.29,0,.39,0-.1.1-.29,0-.39Z"/>
    <path class="cls-6" d="M388.51,329.21c-.1.19-.19.29-.19.39.19,0,.1-.2.19-.39Z"/>
    <path class="cls-6" d="M388.9,328.43c-.1.1-.39.2-.39.58.39.1.48-.49.39-.58Z"/>
    <path class="cls-6" d="M409.81,329.91c.1-.2,0-.29.19-.39-.19-.1-.48.2-.19.39Z"/>
    <path class="cls-6" d="M367.44,317.52c-.1.1-.1.39,0,.39.1-.1,0-.1,0-.39Z"/>
    <path class="cls-6" d="M387.16,332.42c.2.19.19-.39,0-.39,0,.1-.1.29,0,.39Z"/>
    <path class="cls-6" d="M374.93,317.88l-.1.1c0,.1.1.1.19.1,0-.1,0-.19-.1-.19Z"/>
    <path class="cls-6" d="M411.55,327.18h.1c0-.1-.1,0-.1,0Z"/>
    <path class="cls-6" d="M389.47,327.26h-.1c-.1.2-.39.59-.09.68.1-.19.19-.29.19-.68Z"/>
    <path class="cls-6" d="M389.86,326.87c-.19,0-.19-.1-.39-.1,0,.29.1.39.2.49q0-.19.19-.39Z"/>
    <path class="cls-6" d="M390.05,325.9c0,.19-.48.39-.09.68,0-.29.48-.49.09-.68Z"/>
    <path class="cls-6" d="M377.85,340.92c0,.49.1.58.1.97h.1c0-.39,0-.68-.2-.97Z"/>
    <path class="cls-6" d="M366.68,323.74c.1-.1.1-.29,0-.39-.1,0,0,.29,0,.39Z"/>
    <path class="cls-6" d="M367.54,317.42c.19-.49.29-1.17,0-1.56-.09.49,0,1.07,0,1.56Z"/>
    <path class="cls-6" d="M366.68,323.35h.1c0-.49.09-.88.19-1.36h-.1c-.1.49-.19.88-.19,1.36Z"/>
    <path class="cls-6" d="M366.97,321.99c.2,0,0-.1.19-.29-.2,0-.19.2-.19.29Z"/>
    <path class="cls-6" d="M373.28,320.12h-.1q0,.1,0,.2c.1,0,.1-.1.1-.2Z"/>
    <path class="cls-6" d="M373.67,319.73c-.39,0-.29.1-.39.39.29,0,.29-.29.39-.39Z"/>
    <path class="cls-6" d="M363.15,342.59c.1,0,.1.19.2.19.1-.19-.1-.49-.2-.19Z"/>
    <path class="cls-6" d="M374.35,318.95h.1c0-.19-.1,0-.1,0Z"/>
    <path class="cls-6" d="M379.1,336.44c.1-.19.09-.58.09-.97-.09.49-.19.49-.09.97Z"/>
    <path class="cls-6" d="M373.77,319.83c.1.1-.19.39,0,.49,0-.1,0-.19.1-.2,0-.19,0-.29-.1-.29Z"/>
    <path class="cls-6" d="M377.95,341.89h-.1c0,.39-.1.49.1.68.1-.29,0-.29,0-.68Z"/>
    <path class="cls-6" d="M374.16,319.83s0,.39-.29.29c0,.1,0,.2,0,.29-.1,0-.29,0-.29.1.19.19.1.2.1.39.29.1.09-.49.48-.49-.29-.29.29-.49,0-.58Z"/>
    <path class="cls-6" d="M362.95,341.91c-.1.2-.1.39.2.39,0-.19,0-.39-.2-.39Z"/>
    <path class="cls-6" d="M411.26,326.8q-.1.19-.1.39h.1c0-.1.19-.39,0-.39Z"/>
    <path class="cls-6" d="M410.49,328.55c-.2,0-.49.49-.19.58,0-.19.19-.19.19-.58Z"/>
    <path class="cls-6" d="M410.97,327.38l-.1.19v.1c.2.19.19-.29.1-.29Z"/>
    <path class="cls-6" d="M391.99,322.49c-.1.1-.19.29-.19.58.19,0,.39-.59.19-.58Z"/>
    <path class="cls-6" d="M391.79,323.07c-.1,0-.19.1-.19.19.2,0,.1-.1.19-.19Z"/>
    <path class="cls-6" d="M391.6,323.56c-.39-.19-.19.2-.29.39h.1c0-.29.19-.29.19-.39Z"/>
    <path class="cls-6" d="M391.31,323.95q0-.1-.1-.1s-.19.39,0,.39c0-.1.1-.1.1-.29Z"/>
    <path class="cls-6" d="M404.68,336.06h-.1q0,.1-.1.1,0,.19,0,.29c.19,0,.19-.1.19-.39Z"/>
    <path class="cls-6" d="M409.52,329.53q-.1,0-.19,0t0,.19q.1,0,.19,0,0-.1,0-.19Z"/>
    <path class="cls-6" d="M403.61,337.33c.1,0,.29,0,.29-.1-.19,0-.29,0-.29.1Z"/>
    <path class="cls-6" d="M404.77,336.06c-.1-.1-.1,0-.1,0,.1.1.1,0,.1,0Z"/>
    <path class="cls-6" d="M405.36,335.28c-.19,0-.19.2-.29.29.2.19.19-.1.29-.29Z"/>
    <path class="cls-6" d="M404.87,335.77q-.1.1-.1.29h.1c0-.1.19-.29,0-.29Z"/>
    <path class="cls-6" d="M394.87,340.28c.1-.1.1.19.29,0,0-.1-.29-.1-.29,0Z"/>
    <path class="cls-6" d="M394.06,330.26c-.1.1-.1.39.1.39-.1-.1,0-.39-.1-.39Z"/>
    <path class="cls-6" d="M402.74,338.98c0-.1.29-.29,0-.49,0,.19-.19.2-.19.2,0,.2-.19.29,0,.39q0-.1.19-.1Z"/>
    <path class="cls-6" d="M394.18,337.94c-.1.39,0,.58.1.88,0-.29,0-1.07-.1-.88Z"/>
    <path class="cls-6" d="M412.23,326.01c0-.1.1-.1.1-.19-.2-.29-.29.2-.1.19Z"/>
    <path class="cls-6" d="M394.38,339.4c.19,0,0,.2.29.19,0-.19-.1-.58-.29-.19Z"/>
    <path class="cls-6" d="M394.67,339.89c0-.2,0-.29,0-.29-.1.1,0,.1,0,.29Z"/>
    <path class="cls-6" d="M412.71,325.23q-.1,0-.1.1c.1,0,.1-.1.1-.1Z"/>
    <path class="cls-6" d="M373.38,320.8c.19,0,.19-.1.19-.29-.29,0-.29.2-.19.29Z"/>
    <path class="cls-6" d="M393.79,336.49c0,.19,0,.49.29.49-.1-.29-.1-.49-.29-.49Z"/>
    <path class="cls-6" d="M412.42,325.43q-.1,0-.1.1t.1-.1Z"/>
    <path class="cls-6" d="M412.62,325.33c-.19,0-.19.1-.19.1.19,0,.19-.1.19-.1Z"/>
    <polygon class="cls-6" points="430.48 316.93 430.48 316.92 430.47 316.93 430.48 316.93"/>
    <path class="cls-6" d="M433.94,332.74h.1c0-.1-.1-.1-.1,0Z"/>
    <path class="cls-6" d="M441.74,303.27c.1.8.4,1.3,0,1.9.4.4.5.6.3,1,.2.2.2.6.6.7.4,0,1.2.1,1.5.4.1-.3.3-.2.5,0,.2-.4.6,0,1-.3.2-.2,0-.3.1-.5.3-.1.1.5.3.5.6-.2.8-1.1,1.4-1.51.29-2.8.99-4.61-1.02-6,0,.1,0,.2-.1.2-.7-.7-1.6-.6-2.41-1.09-.1.1,0,.3-.3.4-.4-.4-1,0-1.5.31,0-.2-.1-.3-.4-.3-.1.9-.09,1.9,0,2.6-.5.6.4,1.3,0,1.7Z"/>
    <path class="cls-6" d="M453.7,331.47c.1.4-.3.7,0,.8.1-.1.2-.9,0-.8Z"/>
    <path class="cls-6" d="M454.19,329.87c0-.2.2-.4,0-.6.1.3-.3.5,0,.6Z"/>
    <path class="cls-6" d="M453.89,330.17c0,.2-.3.8,0,1.2-.1-.5.4-.9,0-1.2Z"/>
    <path class="cls-6" d="M453.4,332.57c0,.1,0,.2,0,.2.4.3.4-.3,0-.2Z"/>
    <path class="cls-6" d="M453.31,335.18c0,.3.1.4,0,.5.3.2.3-.6,0-.5Z"/>
    <path class="cls-6" d="M457.25,317.84v-.1c-.4,0,0,.5,0,.1Z"/>
    <path class="cls-6" d="M453.6,333.47c-.2,0,0-.1-.2-.2-.2,0,.2.6.2.2Z"/>
    <path class="cls-6" d="M453.3,333.88l.1.1c.2.9,0-.6-.1-.1Z"/>
    <path class="cls-6" d="M453.31,334.58h.1q0-.1,0-.2h-.1q0,.1,0,.2Z"/>
    <path class="cls-6" d="M471.23,334.21c.1.2,0,.4.1.4.1-.2.3-.7-.1-.4Z"/>
    <path class="cls-6" d="M472.03,332.81s.2-.1.2-.2h-.2c-.1,0-.1.2,0,.2Z"/>
    <path class="cls-6" d="M466.38,321.11c.1.6.2,1.1.51,1.5.2-.7-.1-1.2-.51-1.5Z"/>
    <path class="cls-6" d="M466.9,327.62c.1.1.2.3.5.3-.3-.2-.4-.6-.2-.9.2.1.2.2.2.3,0-1.2-.21-3.1-.22-4.51-.1-.2-.1.1-.3-.2.1,1.2.51,3.5.02,5.01Z"/>
    <path class="cls-6" d="M458.35,317.74l-.2.1c0,.3.3,0,.2-.1Z"/>
    <path class="cls-6" d="M464.67,318.31c-.1.1-.2,0-.2.1.1,0,.2,0,.2-.1Z"/>
    <path class="cls-6" d="M487.74,321.01c.1-.16-.86.86,0,0h0Z"/>
    <path class="cls-6" d="M480.57,325.88c-.02-.41-.05-.82-.05-1.23,0-.68,0-1.37-.02-2.05-.02-.23-.04-.48-.06-.72-.32.16-.66.31-1.03.38,0,.2.1.3,0,.3-.3-.3-.5.4-1,.3.1.3-.2.5-.6.7-.2,0,0-.5-.2-.5-.2.3-.4.6-.4.7-.2-.2-.6.6-1,.3,0,.3-.3.3-.4.5-.3,0-.2-.3-.4-.2-.2.2-.4.6-.6.4-.2.6-1.2.6-1.7,1.11-.21-3.7-1.83-6.5-3.84-8.8,0,.1.2.3,0,.3-.3-.2-.3-.3,0-.5-.1-.3-.5-.3-.5-.7-3.61-1.69-10.02-2.37-11.51,1.54.1,0,.1-.2.2-.2,0,0,0-.1.1-.1,0,0,0,.1-.1.1,0,.2-.1.2-.1.3.4,0,.4-.6.6-.3-1.79,2.71-2.98,6.12-3.67,9.93-.4.3-.6,1.5-.39,1.7.1-.7.4-1.3.59-1.91.3.8-.5,1.2-.09,1.7.1-.3,0-.4.1-.5,0,.2.1.4-.1.5-.09,2.3-1.28,5.31-.57,7.71.1.6.21,1.2.41,1.8-.3-.4-.5-1.2-.41-1.8-.4-.2,0,.4-.4.3.2-.5-.2-.5-.2-.8.1-.7-.11-1.8,0-2.8.09-1.5.59-3.11.49-4.11-.49,2-.89,4.81-.57,7.51.61,2.3,2.12,3.6,3.62,4.89,1.11,1.4,3.01,1.69,5.31,1.68,0-.1,0-.3.1-.3.2,0-.1.5.2.3,1.8-.41,3.3-1.31,4.6-2.22,0-.2.2-.2.1-.6.5.4,1.8-1.41,2.3-2.01.7-1.1,1.29-2.71,1.89-3.51,0-.4-.4-.7,0-.8.1-.5.2,0,.5-.3,0-.5.1-1.4.49-2,.1,0,0,.3.1.3,0-.3,0-.7,0-.9,3.06-1.5,5.73-3.44,8.25-5.42ZM476,324.58c.4,0,0,.2,0,.4-.1.2,0-.2,0-.4ZM453.42,337.08c.3,0,.3.3.3.5-.1,0-.3-.2-.3-.5ZM454.88,325.46h.1c0-.1,0-.2.1-.2,0-.2.1,0,0,0,0,.1,0,.2-.1.2.1.2,0,.4-.1.5-.3-.1.1-.3,0-.5ZM454.58,326.76c0,.1-.1.1,0,.3-.1.3-.3-.4,0-.3ZM454.89,327.96c-.3-.6,0-1.2,0-1.9.3,0,0,.6,0,.7,0,.3.1-.1.3,0-.2.4-.3.7-.3,1.2ZM455.38,326.56c-.3-.1-.3-.9.1-.9-.1.4-.1.6-.1.9ZM455.38,325.26q0-.2,0-.3c-.5.1-.2-.3,0,0,.2-.7.3-1.7.89-2.11-.5.6-.49,1.8-.89,2.41ZM456.17,322.65c0-.2.1-.3.4-.4-.2.1-.2.4-.4.4ZM455.37,324.15c-.3-.7.79-2.11.89-3.11.7-.8,1.29-3.41,2.09-3.51v.2c.3,0,.2-.5.6-.5-1.39,2.41-2.59,4.12-3.58,6.92ZM462.43,338.45v-.2c.5-.1-.4.6,0,.2ZM462.93,338.05h-.1q0,.1-.1.1s0-.1.1-.1c.4-.8,1.2-1.31,1.29-2.41-1.09,1.81-2.39,3.41-4.19,4.42.3,0-.1.5,0,0-.1,0-.2.2-.3.2,0,.2-.4-.2,0,0-.2-.5-.4.1-.8,0-1.51-1.4-1.32-4.5-1.02-6.61,1.2.8,3.31,1.49,5.21,1.48.5.1,1-.2,1.2.3.3,0,.3-.4.6-.4-.6,1.1-1.19,2.21-1.89,3.01ZM464.71,330.43c0,.2-.1.3-.2.4-.3-.1,0-.4.2-.4ZM467.01,329.22c-.1-.7.2-.6.2-1.3-.7.1-.09,1.5-.9,1.5,0,.2,0,.4-.1.4-.3,0,0-.2,0-.3-.5.1.1.6-.6.5,0,.3-.4-.2,0,0,0-.2.1-.2.1-.2-.5,0-.4.3-.6.5-.1,0,0-.1,0-.2-.5,0-.5.3-1,.5.1.2.4.1.1.2-1.3-.1-2.6,1.31-4.4.82-1.21-3.2.38-6.41,1.17-8.62.99-2.01,2.19-3.61,3.49-5.22.6.3.6,1,.91,1.2.2-.7-.6-.8-.61-1.4.6.1,1.41,1.3,1.21,2.2-.2-.2-.2-.6-.6-.8.4.8.81,1.4,1.01,2.1.2-.4.2-.5,0-.9.7.4.61,1.5,1.11,2,.31,1.9.62,5.61-.48,7.01Z"/>
    <path class="cls-6" d="M461.04,339.66c0,.1,0,.2-.2.2q0-.1,0-.2t.2,0c0-.2.1,0,0,0Z"/>
    <path class="cls-6" d="M461.44,339.45c0,.2-.2,0,0,0h0Z"/>
    <path class="cls-6" d="M467.61,328.42c0-.1.1-.1.2-.1,0,.1-.1,0-.2.1Z"/>
    <path class="cls-6" d="M470.54,336.12h-.1c.1.3-.3,0,0,0,0-.1.1-.3.1-.4.1,0,.1.3,0,.4Z"/>
    <path class="cls-6" d="M477.4,323.68c0-.1.2-.1.2,0,0,.1,0,0-.2,0Z"/>
    <path class="cls-6" d="M18.45,340.05c0,.1-.1.29,0,.29.19-.1.1-.2,0-.29Z"/>
    <path class="cls-6" d="M37.68,306.57c0-.06,0-.11,0-.14,0,.05,0,.1,0,.14Z"/>
    <path class="cls-6" d="M40.15,289.79c.29.1.49.19.97.09.39-.97-.68-1.07-1.27-1.26-2.04-.19-2.72.79-3.49,1.76-.1.19.29.29.1.39-.1-.1-.19-.1-.39-.1-2.71,5.26-4.04,11.98-4.99,18.69.58-.59.19-1.27.58-1.75,0-.29,0-.68.19-.68-.2-.58.09-1.36.19-1.85-.1-.1-.1-.39.29-.29-.49-.19-.1-.97.19-.88,0,.88-.19,1.85-.57,2.43-.09,1.65-.28,3.5-.86,4.87-.39-.68.58-1.46,0-1.75-1.43,7.49-1.99,16.15-2.83,25.1-.37,4.09-.55,8.17-1.42,11.68-.59-1.17-.3-3.11-1.18-3.89-.69-3.89-1.29-7.78-1.89-11.57-.1-.39.39-.29.19-.58,0-1.65-.89-2.91-.7-4.57-.3-1.56-.59-3.11-.5-4.76-1.18-3.21-.6-5.83-1.98-8.84-.21-3.11-1.29-7-3.63-9.81-1.17-.68-1.85-1.74-3.41-1.84-1.07-.19-2.43.4-3.6.6-.97.1-1.65,0-2.14.2-1.94,1.66-3,4.09-3.67,6.92-.29.1-.88.29-.58.49.1-.29.1.19.1.29-2.98,8.86-3.62,20.44-3.58,31.82,0,2.53.02,4.38-.17,6.52,0,.58.39,1.46-.09,1.95,1.75.58,2.83,1.84,5.26,1.54,2.72-.98,2.42-4.39,2.11-7.59,0-.39.29-.29.19-.58-.92-12.54.39-27.92,4.83-37.17.2.58.39,1.17.59,2.04.1-.2.29-.2.29,0,.59,1.75.99,4.08,1.29,6.41.5,3.11.99,4.96,1.1,7.97.1.29.29.39.39.49,0,.1-.39,0-.29.39.59,2.53.6,6.03,1.39,8.36.09-.49-.2-.78,0-1.07-.2,0-.2-.19,0-.19q0,.1,0,.19c.39.39.2,1.17-.19,1.56.29,0,.49,0,.49.1-.48.59-.09,1.56,0,2.33,0-.29-.1-.78,0-.88.29.1.49.87,0,.97-.19,1.07.49,2.24.4,3.31.29.1,0-.49.19-.49.39.39-.48.88-.09,1.56.39.1.19-.49.39-.1.2.87.3,1.94.2,2.63,0-.1.1-.2.1,0h-.1c.39,1.07.4,2.43.7,3.99.49.1-.1-.49.29-.39.1.49-.19.58,0,1.07.69,2.91.89,5.54,2.36,7.58,1.17,1.07,3.7.96,5.45,1.73.78-.29,2.92-.11,3.69-.89,2.52-2.34,3.48-5.75,3.76-9.74,0-.2.19-.2.29-.49-.3-1.46.48-2.63.47-4.09.36-8.66,1.2-18.19,1.66-26.36-.29-2.38.52-4.57.46-6.76-.01.15-.05.34-.19.34.58-1.95-.5-3.6.37-5.35-.1-.49,0-.39-.1-.97.39-.88-.1-1.94.38-2.43-.59-1.36-.01-3.01.57-4.48.19-1.46.48-3.11,1.45-3.89ZM15.95,321.58c.1,0,.2.1.2.19-.39.2-.39-.1-.2-.19ZM17.55,334.41c.39-.1.29.48.2.58-.29-.1,0-.49-.2-.58ZM17.95,336.35c-.19,0-.1-.39-.1-.58.19.19.19.29.1.58ZM19.34,343.74c-.1-.1-.2-.49-.2-.68.2.1.39.29.2.68ZM28.55,336.9c-.19,0-.1-.58.1-.39,0,.1,0,.29-.1.39ZM28.63,332.81c-.1-.39,0-.78.29-1.17.2.19.2,1.07-.29,1.17ZM28.92,331.55c0-.49,0-.88,0-1.36.29.1.1.88,0,1.36ZM29.12,333.1q-.1,0-.19,0v-.1q.1,0,.19,0v.1ZM29.11,329.89c-.58-.39,0-.88,0-1.56.29.58-.09.97,0,1.56ZM29.67,323.96c-.09,1.56-.18,2.82-.47,4.18-.1-.78-.01-3.6.47-4.18,0-.19-.1-.19-.1-.29.1,0,.19.1.1.29ZM29.67,323.18c-.19-.1-.1-1.26,0-1.56.49.39,0,.97,0,1.56ZM29.96,321.14c-.3-2.33.37-4.96.65-7.3.1,2.04-.37,5.25-.65,7.3ZM31.09,313.16q-.2,0-.29,0c0,.29,0,.39.1.68-.29.1-.29-.58-.29-.88.1,0,.1.2.2.19-.2-.78.29-1.17.09-2.04.59.58-.09,1.26.2,2.04ZM31.49,315.69c0-.1.2-.1.2-.1,0,.1-.2.1-.2.1ZM32.04,306.44c0-.1.19-.1.19,0,0,.1,0,0-.19,0ZM32.81,303.62c0-.1.1,0,.19-.1,0,.1-.1.1-.19.1ZM33,302.06c-.1.2-.39.2-.48.58.1.1.1-.19.39,0-.1.1-.1.29-.39.29,0,.1.29.1.1.39-.1,0-.1.1-.1.2-.49-.78.38-1.95.38-3.02.58.19-.48,1.07.1,1.56ZM32.99,300.41c0-.68.48-1.85.67-2.82.29.78-.19,2.24-.67,2.82ZM34.05,297.39h-.1s0-.19,0-.19h.1s0,.19,0,.19ZM33.95,297c0-.2.1-.2.1,0,0,.1,0,0-.1,0ZM34.05,296.42c.19-.39.1-.78.48-.78-.29.1-.19.68-.48.78ZM34.63,295.25c-.29-.1,0-.58.1-.68.39,0-.1.49-.1.68ZM34.72,294.18c.19,0,0-.49.19-.49-.1-.68.39-.29,0,0,.2.39.2.58-.19.49ZM37.1,307.69c-.19-.1.1-.39,0,0,.1,0,.1.19,0,0ZM37.46,298.64c0-.1,0-.29,0-.39.29-.1.29.48,0,.39ZM37.85,298.16q-.1,0-.2,0t0-.19q.1,0,.19,0,0,.1,0,.19Z"/>
    <path class="cls-6" d="M17.45,333.92v.1c.1-.1,0-.1,0-.1Z"/>
    <path class="cls-6" d="M18.05,338.49c0,.19,0,.39,0,.49.39.1.39-.58,0-.49Z"/>
    <path class="cls-6" d="M45.37,319.16l-.2.1c0,.31.31,0,.2-.1Z"/>
    <path class="cls-6" d="M59.39,334.62s.21-.1.21-.21h-.21c-.1,0-.1.21,0,.21Z"/>
    <path class="cls-6" d="M58.58,336.06c.1.21,0,.41.1.41.1-.21.31-.72-.1-.41Z"/>
    <path class="cls-6" d="M53.6,322.62c.1.62.21,1.13.52,1.54.2-.72-.11-1.23-.52-1.54Z"/>
    <path class="cls-6" d="M44.24,319.26v-.1c-.41,0,0,.51,0,.1Z"/>
    <path class="cls-6" d="M41.1,331.6c0-.21.2-.41,0-.62.1.31-.31.51,0,.62Z"/>
    <path class="cls-6" d="M54.13,329.3c.1.1.21.31.51.31-.31-.2-.41-.61-.21-.92.21.1.21.2.21.31,0-1.23-.22-3.18-.22-4.62-.1-.2-.1.1-.31-.2.11,1.23.53,3.59.02,5.14Z"/>
    <path class="cls-6" d="M51.84,319.75c-.1.1-.21,0-.2.1.1,0,.21,0,.2-.1Z"/>
    <path class="cls-6" d="M40.79,331.91c0,.21-.31.82,0,1.23-.11-.51.41-.93,0-1.23Z"/>
    <path class="cls-6" d="M40.19,335.72l.1.1c.21.92,0-.62-.1-.1Z"/>
    <path class="cls-6" d="M40.49,335.3c-.21,0,0-.1-.21-.21-.21,0,.21.62.21.21Z"/>
    <path class="cls-6" d="M40.19,336.43h.1q0-.1,0-.21h-.1q0,.1,0,.21Z"/>
    <path class="cls-6" d="M40.19,337.05c0,.31.1.41,0,.51.31.2.31-.62,0-.51Z"/>
    <path class="cls-6" d="M40.28,334.38c0,.1,0,.2,0,.2.41.31.41-.31,0-.2Z"/>
    <path class="cls-6" d="M40.59,333.25c.1.41-.31.72,0,.82.1-.1.2-.93,0-.82Z"/>
    <path class="cls-6" d="M74.71,338.47c.41,0,.41-.31.51-.41-.2,0-.41.1-.51.41Z"/>
    <path class="cls-6" d="M76.07,345.04s-.1,0-.1.21c0,0,.1,0,.1-.21Z"/>
    <path class="cls-6" d="M73.89,338.88s.1,0,.1-.1c0,0-.1,0-.1.1Z"/>
    <path class="cls-6" d="M69.8,343.01q0-.1-.21-.1c.1.1,0,.21.1.21,0,0,0-.1.1-.1Z"/>
    <path class="cls-6" d="M77.82,344.73c-.1,0-.21,0-.31.1.1,0,.31,0,.31-.1Z"/>
    <path class="cls-6" d="M72.25,340.02c.1.1.1,0,.1,0h-.1Z"/>
    <path class="cls-6" d="M85.81,309.56c-.1.31-.72.11-.82,0-.1.21.21.51,0,.51-.2.1-.51-.51-.51-.2,0,.51.72.31.72.61-.31.41-.72.52-1.03.41,0-.41.72,0,.72-.52-1.34.11-2.98,1.14-3.38,2.17,0-.21.2-.52-.1-.51-.62.31-1.13.93-1.95,1.14,0,.21,0,.31-.1.41-2.36,1.75-4.61,3.51-6.45,5.57,0,0,0,.2.21.2.21-.31.1-.51.41-.51q0-.1.2-.1c0-.21.1-.21.2-.31,0,.1-.1.31-.2.31,0,0,0,.1-.2.1-.1.1-.1.51-.41.51-.2,0-.2.62-.41.31-.1.31-.2.52-.61.62,0-.31.21-.21.2-.51-1.23.52-1.43,1.85-2.46,2.47-.02.06-.04.1-.07.16-.9.41-1.69,1.17-2.8,1.39,0,.2.1.31,0,.31-.31-.31-.51.41-1.03.31.1.31-.2.51-.61.72-.21,0,0-.51-.21-.51-.2.31-.41.62-.41.72-.21-.21-.61.62-1.03.31,0,.31-.31.31-.41.51-.31,0-.21-.31-.41-.2-.21.21-.41.62-.62.41-.2.62-1.23.62-1.74,1.14-.22-3.8-1.87-6.67-3.94-9.03,0,.1.21.31,0,.31-.31-.2-.31-.31,0-.51-.1-.31-.51-.31-.52-.72-3.7-1.73-10.28-2.43-11.81,1.58.1,0,.1-.21.21-.21,0,0,0-.1.1-.1,0,0,0,.1-.1.1,0,.21-.1.21-.1.31.41,0,.41-.62.62-.31-1.84,2.78-3.06,6.28-3.76,10.18-.41.31-.61,1.54-.4,1.75.1-.72.41-1.34.61-1.95.31.82-.51,1.23-.1,1.75.1-.31,0-.41.1-.51,0,.21.1.41-.1.51-.09,2.36-1.32,5.45-.59,7.91.11.62.21,1.23.42,1.85-.31-.41-.52-1.23-.42-1.85-.41-.2,0,.41-.41.31.2-.52-.21-.51-.21-.82.1-.72-.11-1.85-.01-2.88.1-1.54.61-3.19.5-4.21-.51,2.06-.91,4.93-.59,7.71.63,2.36,2.17,3.69,3.72,5.02,1.14,1.44,3.09,1.74,5.45,1.73,0-.1,0-.31.1-.31.21,0-.1.51.21.31,1.85-.42,3.39-1.35,4.72-2.28,0-.21.21-.21.1-.62.51.41,1.84-1.44,2.36-2.06.72-1.13,1.33-2.78,1.94-3.6,0-.41-.41-.72,0-.82.1-.51.21,0,.51-.31,0-.51.1-1.44.51-2.06.1,0,0,.31.1.31,0-.31,0-.72,0-.93,3.13-1.54,5.88-3.52,8.46-5.55.05.02.11.03.15.07,0,.1-.41.1-.1.21.31,1.23,1.45,2.46,1.86,3.9.82.92,1.65,1.95,2.68,2.76,3.5,2.15,8.74,2.23,12.75,3.76.21.21.72-.1.72.2,0,.21-.61.72-.1.62,0-.2,0-.31.1-.31,0,.1,0,.31-.1.31,0,.72-.51.41-.82.93.21,0,.21.31,0,0-1.23,1.34-2.56,2.58-3.99,3.51,0,.1-.1.1-.31.1-1.64.42-3.9,2.27-7.08,2.08-.41-.41-.11-1.54-.52-1.33,0-.62,1.02-1.34.71-1.54,0,.1-.1.21-.1.1q0-.1.1-.1c.1-.41.31-.31,0-.62.41-.21.62-.52.92-.83-.41,0-.62.31-.92.41.51-1.03,1.54-1.34,1.95-2.06-.21,0-.2.21-.62.21,0,.1-.1.1-.1,0h.1c.21-.21.51-.21.51-.62-.1-.2-.31.1-.51-.1.31-.1.62-.11.61-.52-.1-.1-.21-.2-.21-.51-2.46,1.04-4.31,2.79-5.94,4.64.21.2-.1.72-.2,1.03-.1-.1-.41-.41-.62-.2.21.41.72.51.52.82,1.75,2.15,3,4.82,6.08,5.42.62,0,1.03,0,1.34.3,3.08-.22,5.75-.84,7.9-2.19,2.46-.83,5.84-3.31,6.45-6.08.41-1.44-.52-2.26-1.14-3.39-3.09-3.38-7.83-5.01-13.17-6.22-1.34,0-3.19-.5-4.11-1.22.2-.41.31-.62.2-1.13.61-1.03,1.23-1.85,1.63-2.99,4.2-4.53,8.91-8.76,14.65-11.76.11,1.13-.3,1.95-.09,2.98.1-.62.51-.41.72-.1.1-.21,0-.62.31-.62,0,.21,0,.31.1.31.21-.21.31-.21.62-.62.1,0,0,.51.1.62.21-.1.2-.51.41-.62,0,.1,0,.31.1.31.1-.21,0-.62.2-.62,0,.1,0,.2.1.2,0-.1-.1-.41.2-.41.21,0-.2.41.21.31.61-.93.71-2.37,1.32-3.09-.32-4.01-5.46-3.37-7.93-4.29ZM40.3,339c.31,0,.31.31.31.51-.1,0-.31-.2-.31-.51ZM41.8,327.08h.1c0-.1,0-.21.1-.21,0-.21.1,0,0,0,0,.1,0,.2-.1.21.1.2,0,.41-.1.51-.31-.1.1-.31,0-.51ZM41.5,328.73c-.1.31-.31-.41,0-.31,0,.1-.1.1,0,.31ZM41.81,329.65c-.31-.62,0-1.23,0-1.95.31,0,0,.62,0,.72,0,.31.1-.1.31,0-.2.41-.31.72-.3,1.23ZM42.32,328.21c-.31-.1-.31-.92.1-.92-.1.41-.1.62-.1.92ZM42.31,326.87q0-.21,0-.31c-.51.11-.21-.31,0,0,.2-.72.3-1.75.92-2.16-.51.62-.51,1.85-.92,2.47ZM43.12,324.2c0-.21.1-.31.41-.41-.2.1-.2.41-.41.41ZM42.31,325.74c-.31-.72.81-2.16.91-3.19.72-.82,1.32-3.5,2.15-3.6v.21c.31,0,.2-.52.61-.52-1.43,2.47-2.66,4.22-3.67,7.1ZM48.12,341.65c0,.1,0,.21-.21.21q0-.1,0-.21t.21,0c0-.2.1,0,0,0ZM48.53,341.44c0,.2-.21,0,0,0h0ZM49.55,340.41v-.2c.51-.1-.41.62,0,.2ZM50.06,340h-.1q0,.1-.1.1s0-.1.1-.1c.41-.82,1.23-1.34,1.33-2.47-1.12,1.85-2.45,3.5-4.3,4.54.31,0-.1.51,0,0-.1,0-.2.21-.31.21,0,.2-.41-.2,0,0-.21-.51-.41.1-.82,0-1.55-1.43-1.35-4.62-1.05-6.78,1.24.82,3.4,1.53,5.35,1.52.51.1,1.03-.21,1.23.3.31,0,.31-.41.61-.41-.61,1.13-1.22,2.26-1.94,3.09ZM51.88,332.18c0,.21-.1.31-.2.41-.31-.1,0-.41.2-.41ZM54.24,330.94c-.11-.72.2-.62.2-1.34-.72.11-.1,1.54-.92,1.54,0,.21,0,.41-.1.41-.31,0,0-.21,0-.31-.51.11.1.62-.61.52,0,.31-.41-.2,0,0,0-.21.1-.21.1-.21-.51,0-.41.31-.61.52-.1,0,0-.1,0-.21-.51,0-.51.31-1.03.52.1.2.41.1.1.2-1.34-.1-2.67,1.34-4.52.84-1.24-3.28.39-6.58,1.2-8.84,1.02-2.06,2.25-3.71,3.58-5.35.62.31.62,1.03.93,1.23.2-.72-.62-.82-.62-1.44.62.1,1.44,1.33,1.24,2.26-.21-.2-.21-.62-.62-.82.41.82.83,1.43,1.04,2.15.2-.41.2-.51,0-.92.72.41.62,1.54,1.14,2.05.32,1.95.64,5.75-.49,7.19ZM54.86,330.12c0-.1.1-.1.21-.1,0,.1-.1,0-.21.1ZM57.86,338.02h-.1c.1.31-.31,0,0,0,0-.1.1-.31.1-.41.1,0,.1.31,0,.41ZM63.47,326.59c-.1.21,0-.21,0-.41.41,0,0,.21,0,.41ZM64.91,325.25c0-.1.2-.1.21,0,0,.1,0,0-.21,0ZM73.3,345.36c0-.1.1-.31.2-.41.1,0,0,.41-.2.41ZM80.08,344.31h-.1q0-.1,0-.2h.1q0,.1,0,.2ZM77.82,314.83c.41.2-.1.51-.31.51,0-.2.2-.21.31-.51ZM76.48,316.07c.1-.1.1-.21.41-.21,0,.21-.1.21-.41.21q0,.21-.1.21c0-.21.1-.21.1-.21ZM73.92,318.34c0-.1.21,0,0,0h0ZM70.34,322.46s.02-.05.03-.08c.02.02.02.08-.03.08ZM70.75,321.84c.27.09-.12.18-.12.33-.05,0-.1,0-.15.02-.04-.09.2-.28.27-.35ZM69.42,322.67c.1,0,.21,0,.21,0v.08s-.03.09-.05.13c-.04,0-.09,0-.15,0,0,0,0-.1,0-.21ZM68.91,323.18h.1c.1.1-.1.1-.2.1l.1-.1ZM68.39,323.29c.1,0,.21,0,.21,0v.21s-.1,0-.2,0q0-.1,0-.21ZM67.88,323.8c0,.1-.2.1,0,0h0ZM72.7,320.4c0,.41-.41,0,0,0,.72-.93,1.74-1.86,2.66-2.58-.82.93-1.64,1.75-2.66,2.58ZM75.05,317.3c0-.21.21-.21.31-.1,0,.1-.1.31-.31.1ZM75.87,316.69c0-.31.41,0,0,0,.1.41-.31.21-.31.41-.31-.2.2-.41.31-.41ZM75.57,317.71c.1-.1.1-.21.1-.41.21,0,.51-.1.62-.31.1.21-.51.62-.72.72ZM76.38,316.38c0,.1-.2,0,0,0h0ZM76.9,316.58c-.1.1-.1.41-.51.41.1-.1.2-.41.51-.41l.1-.1q0,.1-.1.1ZM77.1,315.86c-.1-.1,0-.21,0-.41.1.21,0,.31,0,.41ZM78.33,315.34c-.2.51-.72.52-.92,1.03-.21-.41.41-.72.92-1.03,0-.31.41,0,0,0ZM78.33,314.83c-.21-.1,0-.41.31-.41.1.31-.41.21-.31.41ZM78.84,314.83c0-.1.1-.1.2-.1,0,.1-.1.1-.2.1ZM80.48,313.79c0-.31.2-.31.31-.41,0,.21-.1.41-.31.41ZM80.79,313.18h-.21s0-.21,0-.31c.1.1.1,0,.1,0,.21,0,.21.1.1.31ZM80.89,313.38c0-.1.21-.1.41-.1q-.1.1-.41.1ZM83.66,311.11c-.1.41-.51.52-.92.62.2-.31.51-.41.92-.62ZM83.25,312.04c-.1-.31.31-.1.31-.31.21.2-.2.31-.31.31ZM82.43,311.73q.1,0,.21.2c-.2.1-.51.31-.82.41.1-.31.51-.31.61-.62ZM81.71,312.86c.1-.1.2-.21.62-.31-.2.21-.31.41-.62.31ZM82.53,312.35c0,.51-.41,0,0,0,0-.1.1-.1.21-.1.21.1,0,.31-.21.1ZM83.77,312.24s0,.1-.1.1c0,.21-.1.21-.41.21q.1-.21.41-.21c0-.1.1-.1.1-.1,0-.1.2-.1,0,0ZM83.86,311.31h-.1c0-.2,0-.31,0-.41.1,0,.1.1.21.1,0,.1-.1.1-.1.31ZM84.28,311.93q.1-.21.31-.21c0,.21-.1.31-.31.21ZM89.74,316.84c.1.1.21.1.21.31-.2,0-.1-.1-.21-.31ZM89.94,316.64c-.41-.2-.42-1.44-.11-1.85.21.41.11,1.23.11,1.85Z"/>
    <path class="cls-6" d="M72.8,319.37c-.31,0-.51.21-.51.41.21,0,.2-.21.41-.1.1-.1.1-.21.1-.31Z"/>
    <path class="cls-6" d="M204.76,333.04h-.1c0,.1,0,.2,0,.2h.1s0-.1,0-.2Z"/>
    <path class="cls-6" d="M204.57,334.89c0,.1,0,.29,0,.39h.1c.1-.1.1-.39-.1-.39Z"/>
    <path class="cls-6" d="M231.01,336.62c-.19.02-.01-.1-.22-.17-.19.02.26.56.22.17Z"/>
    <path class="cls-6" d="M230.76,337.04l.11.09c.29.85-.07-.58-.11-.09Z"/>
    <path class="cls-6" d="M242.38,320.91c.1-.01.19-.02.18-.12-.09.11-.19.02-.18.12Z"/>
    <path class="cls-6" d="M248.1,335.43c.12.18.04.39.14.38.07-.2.21-.71-.14-.38Z"/>
    <path class="cls-6" d="M248.72,333.99s.18-.12.17-.22l-.19.02c-.1.01-.07.2.02.19Z"/>
    <path class="cls-6" d="M243.21,329.53c.11.09.23.27.52.23-.31-.16-.45-.53-.29-.85.2.07.22.17.23.27-.13-1.16-.54-2.97-.7-4.33-.12-.18-.08.11-.31-.16.23,1.15.87,3.33.56,4.83Z"/>
    <path class="cls-6" d="M235.36,321.13v-.1c-.4.04.04.48,0,.1Z"/>
    <path class="cls-6" d="M230.91,338.3c.03.29.14.37.06.48.31.16.22-.61-.06-.48Z"/>
    <path class="cls-6" d="M230.92,337.51h-.1q.01.11.02.2h.1q-.01-.11-.02-.2Z"/>
    <path class="cls-6" d="M242,323.31c.16.57.32,1.04.65,1.39.12-.7-.23-1.15-.65-1.39Z"/>
    <path class="cls-6" d="M230.97,335.45c.08-.11.09-.89-.09-.77.14.38-.21.71.09.77Z"/>
    <path class="cls-6" d="M236.41,320.91l-.18.12c.03.29.29-.03.18-.12Z"/>
    <path class="cls-6" d="M230.71,335.77c.01.1.02.19.02.19.42.25.35-.33-.02-.19Z"/>
    <path class="cls-6" d="M407.36,337.82c.02,1.99.41,3.94,1.38,5.72.6,1.1,1.41,2.1,2.21,3.1.81,1.1,1.91,1.9,2.81,2.79.8.2,1.5.4,2,.79.4,0,.7.2,1.2.4.6,0,1,.1,1.6.09,5.91-.42,8.9-3.64,12.19-6.75,0-.2-.2-.2-.2-.2,0,0,0,.2-.1.2,0,0-.2.3-.3.1q.1-.1.3-.1,0-.2.1-.2c3.29-3.32,6.18-7.03,9.18-10.85,0-.6.6-.7.39-1.4.3.3.32.03.4-.07-.24,1.67-1.3,13.91-1.32,15.42-.27,1.94,6.24-5.02,6.37-6.75.52-3.78,1.69-20.54,1.08-22.24-1.01-.9-3.22.79-4.52.39-1.41,7.3-5.41,11.37-5.71,11.97-.3-.3-.3.2-.6.5-.6.7-1.1,1.41-1.8,2.01,0,0,0,.1-.1,0-1.6,2.01-3.69,3.42-5.29,5.53.1-.1,0-.1-.1-.1-.4.7-1.1.7-1.4,1.61-.6-.2-.9.7-1.4.91-3.2,2.41-6.09,5.73-11,5.85-2.31-2.7-1.94-9.31-.55-12.62,1.6-.61,3-1.31,4.2-2.42.1.2.1,0,.4,0,4.61-4.07,8.93-8.53,11.66-14.57-.29-.2,0-.5,0-.8.3.2-.08.49,0,.79.16-.36.34-.71.5-1.09h-.1c0-.1,0-.4.1-.4,0,.1,0,.3,0,.4.3-.6.4-1.2.49-1.8-.21-3.71-3.42-4.59-6.73-4.58-.5-.2-1.1-.2-1.7-.49-2.9,2.21-5.29,4.62-7.18,7.64.1.1.2.1.2.2-.1,0-.2,0-.2-.2-.5.4-.6,1-.7,1.4,0-.1,0-.3-.1-.3-1.01,1.65-2.01,3.29-2.95,5.07-.55.74-1.1,1.49-1.53,2.36.43-.26.58-.87.92-1.17-.11.22-.21.47-.31.7-.2.25-.41.51-.51.86.09,0,.1.04.08.1-.03.06-.06.12-.08.19-.07-.02,0-.19-.09-.19,0,.2-.4.1-.3.5.3,0-.1.3,0,0-.2,0-.1.5-.3.8-.1,0-.1-.2-.3-.2-.4.3,0,1.3-.8,1.3.1.6-.2.6-.4.8-.1,0-.1-.2-.2-.2,0,.1-.1.2-.1.4.2.3-.6,1.2-1,1.41,0,.4-.2.7-.5.5-.2,1.1-.89,1.71-1.39,2.41-.1-.4.2-.3.1-.5-.6,0-.1.7-.5.8-.2.6-.6,1-.9,1.51,0-.4-.1-.5-.3-.7,0,.4.3,1.2-.39,1.5,0-.1.2-.5,0-.5-.3.4,0,.8-.4.9q0,.2-.1.3,0-.2.1-.3t0-.3c-.4.3-.6.8-.5,1.2-.1,0-.1-.2-.3-.1-.3.4.2.7-.4.9,0-.2,0-.4-.1-.4-.4,1.1-1.2,1.71-1.89,2.51q0,.1-.2.1,0,.2,0,.3c-.2-.1-.1-.5-.4-.4-.4.7-.8.7-1.2,1.21.1-.6-.4-.2-.5-.1-1.32-4.3-.73-9.01-.95-13.22-.11-2,.29-4.31-.72-6.21-.8-.8-1.8-.59-3.01-.89-.7.4-1.8.51-3.1.51,0,.1.1.5-.1.5-.1.3-.4.6-.6.8-.1.4.1.4,0,.7-1.29,2.11-2.39,4.21-3.38,6.52.3-.1.4-.6.6-.9,0,0,0-.2.1-.2.3-.7.6-1.4.99-1.91,0-.2,0-.5.2-.5-.1.2-.1.4-.2.5-.2.7-.5,1.5-.99,1.91,0,0,0,.2-.1.2-.5,1.2-1.09,2.41-1.49,3.31,0,.5-.3.9-.5,1.2-.1.1,0,.3-.1.3,0-.2,0-.3.1-.3.1-.5.2-.9.5-1.2.1-.9.7-1.41.89-2.41h-.1c-1,1.91-1.79,4.21-2.78,5.82,0-1,1-1.61.89-2.31-.9,1.41-1.49,3.11-2.39,4.42,0-.8.6-1.6.09-2.2.6-.9.2-1.7.69-2.61.58-5.11,3.06-11.23,1.64-17.23-.4,0-.7-.6-1.01-1-.7-.2-1.6-.4-2.01-.69-1.1.2-2.8.71-4.2.62-1.45-.15-3.5,2.05-4.54,3.29-.28-.04-.49-.07-.57-.07-.1.1.3.6-.1.6-.2.5-.2.6-.6.9-.3.7.3,1.2-.3,1.5-.2.5-.4.9-.6,1.2,0,0,0,.1-.2.1,0,0,0-.1.2-.1-.2-.2.1-.2.1-.5-.9-.1-.9.81-1.1,1.41.1,0,.1-.2.1-.2,0-.1.3,0,0,0,.1.3-.2.5-.1.2-.1,0-.1.2-.4.2.3-.8.8-1.4.99-2.41-.2.1-.4,1-.6.7.79-2.31.98-7.31-2.63-6.2.1,0,.1.1,0,.1v-.1c-1.1-.1-1.7.31-2.6.91.6.3.21,1.2,0,1.8-.09,1.5-.29,3.21-.39,4.21.6-1.5.39-3.91,1.38-5.21-.8,3.51-1.54,6.31-2.21,8.89-.03-.12-.08-.2-.17-.17.06.25,0,.67-.07,1.09-1.17,4.6-2.09,8.7-2.63,15.22-.02-.03-.06-.04-.15,0,0,.1,0,.4,0,.6,0,.21,0,.55.06.87-.02.02-.02.04.01.05.06.28.15.54.33.68-.4.1-.3-.3-.5-.3.1.6.8.5,1.31.9.1,0,.4,0,.5,0,.2.1,1,.6,1.3.6,2.17,1.44,4.76.68,5.45-2.82.6-1.4,5.39-22.31,10.41-21.73-.38,5.41-2.07,10.62-2.65,15.53.4.1,0-.5.3-.4-.29,2.81-.88,5.11-.67,8.01-.51-2.4.18-4.71.28-6.61-.49,2.2-.79,4.61-.48,6.91-.2.1-.1-.2-.3-.2,0,.5.5.5.5.9.1,0,.1.2,0,.2v-.2c-.5-.2-.6-.8-.91-1.3.11,1.5.91,1.8,2.11,1.89.8.5,2.01.9,3.11,1.59,4.11.09,5.29-4.62,6.79-6.83,1.29-3.21,2.68-6.62,4.47-9.53q0,.1.1.1c0-.4-.1-.8.2-.7.1-.3-.1-.6.1-.6,0,.1.2.6-.1.6.1.1.3.7-.1.5.41,3.2.02,7.01,1.04,10.21.2.8,1.31,1.2,1.31,1.9.1,0,.2-.1.3-.1-.1.4.8.4.9.3.6.6,1.9.59,2.61,1.19,5.79.96,7.63-3.64,10.33-6.57ZM418.25,314.37h.1c.1-.1.1-.3.4-.3-.1.1-.1.3-.4.3.1.4-.1.4-.3.4,0-.2.2-.1.2-.4ZM420.87,318.17c1.8-2.11,3.39-4.52,5.89-5.83.3.2.1.7.3,1.1-.2,1.2-.79,1.81-.89,2.71-3.09,4.62-6.18,9.24-10.37,12.65,1.39-3.91,3.58-7.22,5.07-10.63ZM414.66,319.4s0,0,0,0c0,0,0,0,0,0,.04-.31.28-.83.6-.91h.1c0-.1,0-.2.1-.2,0-.3.3-.4.3-.6.2.1-.1.6-.3.6,0,.1,0,.2-.1.2,0,0,0,.1-.1,0-.1.5-.5.6-.6,1.1-.02-.04-.01-.11,0-.19ZM414.32,319.97c.07-.06.14-.13.14-.28.16.08.06.34-.13.45-.03-.01-.06-.02-.06-.05.02-.05.03-.08.05-.12ZM360.44,340.21c.1,0,.1.6-.1.5,0-.3.1-.4.1-.5ZM360.46,344.02c-.3-.7.09-1.6.09-2.6.4.6-.2,1.4-.09,2.6ZM360.75,341.21c-.3-.3.1-.8,0-1.1.3.2,0,.7,0,1.1ZM361.14,338.81c-.3-.3,0-.9,0-1.5.5.3-.2.9,0,1.5ZM361.33,337c-.3-.3,0-.4,0-.8.2,0,.1.6,0,.8ZM361.92,334h-.2c.2.4-.2.1,0,0,0-.3-.1-.3-.1-.5.4,0,.3.2.3.5ZM362.02,333.1c-.3-.1-.1-.6,0-.7.2.1-.1.5,0,.7ZM362.11,331.79c-.1-.2-.1-.5,0-.6.2,0,.2.7,0,.6ZM368.5,324.96c-.4,0,.2-.3-.2-.3.3-.3.4.3.2.3ZM368.6,323.86h-.1s-.03.05-.11.07c.02-.03-.03-.07.11-.07,0-.3,0-.4.2-.4q0,.1,0,.3-.1,0-.1.1ZM369.09,322.76c-.2-.1,0-.2,0-.4.1.2,0,.3,0,.4ZM370.29,321.65c.1-.1.1-.2.1-.3.2,0,.2.4-.1.3ZM370.98,319.65c-.1.2,0,.7-.4.7.1-.2.1-.6.4-.7,0-.3.2-.5.2-.7l.2.17c.03.15-.26.32-.4.53ZM377.15,329.54h-.1c-.39,2.2-.99,4.61-1.18,6.51.09-2.4.59-4.41,1.18-6.51,0-.2-.1-.2-.1-.4.3,0,.2.2.2.4ZM377.15,328.94c0-1.2.59-2.61.69-3.91,0,1.4-.39,2.71-.69,3.91ZM377.83,324.93c0-.5.3-.9.2-1.2h.1c-.1-.5.2-.2,0,0,.1.3,0,1-.3,1.2ZM378.33,322.82c-.3.3,0-.6,0-.7.4.1-.2.7,0,.7ZM382.28,337.63c0-.1,0-.3,0-.4.2,0,.3.4,0,.4ZM382.28,336.73c0,.2,0,.3,0,.4-.3,0-.2-.2,0-.4.1-.2.1-.6.2-.8.2.2,0,.7-.2.8ZM383.18,335.73c0,.1-.2,0,0,0,0-.3,0-.5.3-.4-.2.1-.2.4-.3.4ZM387.45,326.4c0-.2.3-.3.3-.5.2.2.1.6-.3.5ZM388.65,324.39c0,.1,0,.2-.1.2,0,0,0,.1-.1.1,0,.4-.1.6-.4.8,0,.1,0,.2-.1.2,0,.1-.2.1,0,0,.1-.1,0-.2.1-.2,0-.4.4-.4.4-.8q0-.1.1-.1c0-.1,0-.2.1-.2,0-.1.2-.1.2-.3.1-.1.1.4-.2.3ZM389.24,323.69c-.1,0-.1-.3-.1-.4.1,0,.1.1.3.2q-.2,0-.2.2ZM389.74,322.28c-.1.2-.2.4-.3.5-.2.1,0,.5-.4.5,0-.2.1-.4.2-.5h.2c0-.2,0-.6.3-.5,0-.1,0-.2.1-.2q0,.1,0,.2h-.1Z"/>
    <path class="cls-6" d="M360.24,340.27v-.1c.2,0,.2.4,0,.2v-.1Z"/>
    <path class="cls-6" d="M361.62,334.9c0,.6-.3.3,0,0h0Z"/>
    <path class="cls-6" d="M362.31,330.59c-.1-.6.3-.1,0,0,.4.4-.3.2,0,0Z"/>
    <path class="cls-6" d="M362.9,328.19q-.1,0-.2,0v-.1q.1,0,.2,0v.1Z"/>
    <path class="cls-6" d="M368.3,323.96c.2.4-.2,0,0,0h0Z"/>
    <path class="cls-6" d="M369.49,322.75q-.1,0-.1.1h-.1c.1.4-.2,0,0,0,0-.2,0-.3.2-.3q0,.1,0,.2Z"/>
    <path class="cls-6" d="M369.79,322.65c.1.3-.3,0,0,0,0-.1.2-.1,0,0Z"/>
    <path class="cls-6" d="M371.19,319.94c0,.2-.1,0,0,0,0-.1.3-.1,0,0Z"/>
    <path class="cls-6" d="M376.86,331.64c0-.1.1,0,.1-.1,0,.1-.1.1-.1.1Z"/>
    <path class="cls-6" d="M381.29,339.44c0-.1.1-.1.1-.1,0,.1-.1.1-.1.1Z"/>
    <path class="cls-6" d="M383.58,334.82c0-.1,0-.2.1-.2,0,.1,0,.2-.1.2Z"/>
    <path class="cls-6" d="M383.77,334.32s0,.2-.1.2c.1,0,0-.2.1-.2-.1-.4.4-.1,0,0Z"/>
    <path class="cls-6" d="M391.39,334.89c-.1-.1-.1-.3-.1-.6.1.2.1.4.1.6Z"/>
    <path class="cls-6" d="M391.39,335.9c-.1.4,0-.4,0-.5.1-.2,0,.4,0,.5Z"/>
    <path class="cls-6" d="M391.7,339.3c0-.13.09-.09.15-.11-.06.08-.15.11-.15.11Z"/>
    <path class="cls-6" d="M412.47,322.8s.03-.02.04-.03c-.01.02-.04.04-.06.06,0,0,0-.02.01-.03Z"/>
    <path class="cls-6" d="M418.95,313.67c0-.5.5-.1,0,0,0,.1-.2.1,0,0Z"/>
    <path class="cls-6" d="M417.75,315.17q0-.2.1-.2t.2-.1q0,.1-.2.1s0,.2-.1.2c.1.3-.2,0,0,0Z"/>
    <path class="cls-6" d="M416.56,316.58c0-.1.3-.1,0,0,.1.4-.2,0,0,0Z"/>
    <path class="cls-6" d="M416.26,317.18c0-.1.1-.1.1-.2.1,0,.1.2,0,.2h-.1c0,.1-.2.1,0,0Z"/>
    <path class="cls-6" d="M414.76,318.39c-.1-.4.4,0,0,0h0Z"/>
    <path class="cls-6" d="M411.82,323.31s0,0,0,0c0,0,0,0,0,0Z"/>
    <path class="cls-6" d="M430.55,336.76c0-.2.2-.2.2-.2,0,.2-.2.2-.2.2Z"/>
    <path class="cls-6" d="M437.13,329.63s0-.1.2-.1q0,.1-.2.1Z"/>
    <path class="cls-6" d="M440.2,334.7c-.02.12-.03.25-.05.38.02-.13.03-.25.05-.38Z"/>
    <path class="cls-6" d="M321.67,328.09c-.5.6.3-.8-.3-.6-3.87,4.49-7.53,9.09-11.5,13.28-1.49,1.1-2.78,2.4-4.77,3.1-.7-.69-1-1.89-1.4-2.98.4-.5.1-.8,0-1.39,0-1.49.39-2.79.38-4.48.3-.7,0-1.99.59-2.49,3.09.79,5.57-1.11,7.36-2.41,2.97-3.59,6.35-7.09,7.52-12.37.29-2.09-.81-4.58-2.91-5.17-1.79-.19-3.68.21-5.18.42-.2-.2-.7,0-.8-.2-1.59.6-2.28,2.5-3.67,2.9-2.49,3-4.94,7.12-6.64,11.68-.16.01-.17.09-.17.09.08,0,.12-.02.14-.03-.08.2-.15.41-.22.61-.06.09-.1.21-.12.34-.08.24-.17.48-.25.72-.08.06-.18.11-.33.11.1.58-.19.58-.38.78-.1,0-.1-.19-.19-.19,0,.1-.1.19-.1.39.19.29-.58,1.16-.96,1.36,0,.39-.19.68-.48.49-.19,1.07-.86,1.65-1.35,2.33-.1-.39.19-.29.1-.48-.58,0-.09.68-.48.78-.04.11-.08.2-.13.3,0-.08-.01-.17-.02-.25-.04-.05-.09-.1-.15-.16,0,.16.05.38.06.62-.12.2-.25.39-.38.57.02-.1.01-.19-.08-.19-.14.19-.15.39-.16.55v.02c-.01-.39-.11-.48-.3-.68,0,.18.06.45.06.72-.16.12-.28.29-.37.46.02-.11.03-.21-.07-.21-.27.36-.04.72-.33.85,0,0-.01,0-.02,0h0s-.02.02-.03.02c0,.02,0,.03,0,.05-.04.08-.07.15-.07.22,0,0-.02.02-.03.03q0-.19.1-.29t0-.29c-.28.21-.46.53-.49.84-.03.08-.08.15-.11.23-.03-.03-.08-.04-.16,0-.14.18-.1.35-.09.49-.09.13-.19.26-.29.38,0,0,0,0-.01,0,0-.19,0-.39-.1-.39-.28.78-.77,1.3-1.27,1.83h-.03v.03s-.08.08-.11.12c-.06-.15-.07-.32-.29-.25-.4.7-.8.7-1.2,1.21.1-.6-.4-.2-.5-.1-1.32-4.3-.73-9.01-.95-13.22-.11-2,.29-4.31-.72-6.21-.8-.8-1.8-.59-3.01-.89-.7.4-1.8.51-3.1.51,0,.1.1.5-.1.5-.1.3-.4.6-.6.8-.1.4.1.4,0,.7-1.29,2.11-2.39,4.21-3.38,6.52.3-.1.4-.6.6-.9,0,0,0-.2.1-.2.3-.7.6-1.4.99-1.91,0-.2,0-.5.2-.5-.1.2-.1.4-.2.5-.2.7-.5,1.5-.99,1.91,0,0,0,.2-.1.2-.5,1.2-1.09,2.41-1.49,3.31,0,.5-.3.9-.5,1.2-.1.1,0,.3-.1.3,0-.2,0-.3.1-.3.1-.5.2-.9.5-1.2.1-.9.7-1.41.89-2.41h-.1c-.99,1.91-1.79,4.21-2.78,5.82,0-1,1-1.61.89-2.31-.9,1.41-1.49,3.11-2.39,4.42,0-.8.59-1.6.09-2.2.6-.9.2-1.7.69-2.61.58-5.11,3.06-11.23,1.64-17.23-.4,0-.7-.6-1.01-1-.7-.2-1.6-.4-2-.69-1.1.2-2.8.71-4.2.62-1.45-.15-3.5,2.05-4.54,3.29-.28-.04-.49-.07-.57-.07-.1.1.3.6-.1.6-.2.5-.2.6-.6.9-.3.7.3,1.2-.3,1.5-.2.5-.4.9-.6,1.2,0,0,0,.1-.2.1,0,0,0-.1.2-.1-.2-.2.1-.2.1-.5-.9-.1-.9.8-1.1,1.41.1,0,.1-.2.1-.2,0-.1.3,0,0,0,.1.3-.2.5-.1.2-.1,0-.1.2-.4.2.3-.8.8-1.4.99-2.41-.2.1-.4,1-.6.7.79-2.31.98-7.31-2.63-6.2.1,0,.1.1,0,.1v-.1c-1.1-.1-1.7.31-2.6.91.6.3.2,1.2,0,1.8-.09,1.5-.29,3.21-.38,4.21.6-1.5.39-3.91,1.38-5.21-.8,3.51-1.54,6.31-2.21,8.89-.03-.12-.08-.2-.17-.17.06.25,0,.67-.07,1.09-1.17,4.6-2.09,8.7-2.63,15.22-.02-.03-.06-.04-.15,0,0,.1,0,.4,0,.6,0,.21,0,.55.06.87-.02.02-.02.04.01.05.06.28.15.54.33.68-.4.1-.3-.3-.5-.3.1.6.8.5,1.31.9.1,0,.4,0,.5,0,.2.1,1,.6,1.3.6,2.17,1.45,4.76.68,5.45-2.82.6-1.4,5.39-22.31,10.41-21.73-.38,5.41-2.07,10.62-2.65,15.53.4.1,0-.5.3-.4-.29,2.81-.88,5.11-.67,8.01-.51-2.4.18-4.71.28-6.61-.49,2.2-.79,4.61-.48,6.91-.2.1-.1-.2-.3-.2,0,.5.5.5.5.9.1,0,.1.2,0,.2v-.2c-.5-.2-.6-.8-.91-1.3.11,1.5.91,1.8,2.11,1.9.8.5,2.01.9,3.11,1.59,4.11.09,5.29-4.62,6.79-6.83,1.29-3.21,2.68-6.62,4.47-9.53q0,.1.1.1c0-.4-.1-.8.2-.7.1-.3-.1-.6.1-.6,0,.1.2.6-.1.6.1.1.3.7-.1.5.41,3.2.02,7.01,1.04,10.21.2.8,1.31,1.2,1.31,1.9.1,0,.2-.1.3-.1-.1.4.8.4.9.3.6.6,1.9.59,2.61,1.19.59.1,1.14.13,1.65.12-.03.17-.06.34-.09.5,1.39-.15,2.49-.7,3.43-1.45.96-.58,1.76-1.37,2.5-2.24-.02-.13-.03-.26-.05-.4.68-.87,1.33-1.76,2.06-2.51.08,2.17.77,4.14,2.43,5.49.4.1.7.5,1.2.59.1.3.3.5.6.89,1.6.79,3.69,2.08,6.08,1.77.6-.2,1.29-.6,1.99-.5,2.78-1.5,4.77-3.7,6.65-6,.59-1.5,1.48-2.49,2.28-3.89.1-.8.89-1.99,1.18-2.99-.2-.2,0,.2-.3.2.59-1,.79-1.79,1.28-2.79-.1,0-.3,0-.3-.1.89-.9.19-2.09.49-3.09ZM252.01,340.3c.1,0,.1.6-.1.5,0-.3.1-.4.1-.5ZM252.02,344.1c-.3-.7.09-1.6.09-2.6.4.6-.2,1.4-.09,2.6ZM252.31,341.3c-.3-.3.1-.8,0-1.1.3.2,0,.7,0,1.1ZM252.71,338.89c-.3-.3,0-.9,0-1.5.5.3-.2.9,0,1.5ZM252.9,337.09c-.3-.3,0-.4,0-.8.2,0,.1.6,0,.8ZM253.49,334.08h-.2c.2.4-.2.1,0,0,0-.3-.1-.3-.1-.5.4,0,.3.2.3.5ZM253.59,333.18c-.3-.1-.1-.6,0-.7.2.1-.1.5,0,.7ZM253.68,331.88c-.1-.2-.1-.5,0-.6.2,0,.2.7,0,.6ZM260.07,325.04c-.4,0,.2-.3-.2-.3.3-.3.4.3.2.3ZM260.16,323.94h-.1s-.03.05-.11.07c.02-.03-.03-.07.11-.07,0-.3,0-.4.2-.4q0,.1,0,.3-.1,0-.1.1ZM260.66,322.84c-.2-.1,0-.2,0-.4.1.2,0,.3,0,.4ZM261.86,321.73c.1-.1.1-.2.1-.3.2,0,.2.4-.1.3ZM262.55,319.73c-.1.2,0,.7-.4.7.1-.2.1-.6.4-.7,0-.3.2-.5.2-.7l.2.17c.03.15-.26.32-.4.53ZM268.72,329.62h-.1c-.39,2.2-.99,4.61-1.18,6.51.09-2.4.59-4.41,1.18-6.51,0-.2-.1-.2-.1-.4.3,0,.2.2.2.4ZM268.71,329.02c0-1.2.59-2.61.69-3.91,0,1.4-.39,2.71-.69,3.91ZM269.4,325.01c0-.5.3-.9.2-1.2h.1c-.1-.5.2-.2,0,0,.1.3,0,1-.3,1.2ZM269.89,322.91c-.3.3,0-.6,0-.7.4.1-.2.7,0,.7ZM273.85,337.71c0-.1,0-.3,0-.4.2,0,.3.4,0,.4ZM273.85,336.81c0,.2,0,.3,0,.4-.3,0-.2-.2,0-.4.1-.2.1-.6.2-.8.2.2,0,.7-.2.8ZM274.75,335.81c0,.1-.2,0,0,0,0-.3,0-.5.3-.4-.2.1-.2.4-.3.4ZM279.02,326.48c0-.2.3-.3.3-.5.2.2.1.6-.3.5ZM280.21,324.47c0,.1,0,.2-.1.2,0,0,0,.1-.1.1,0,.4-.1.6-.4.8,0,.1,0,.2-.1.2,0,.1-.2.1,0,0,.1-.1,0-.2.1-.2,0-.4.4-.4.4-.8q0-.1.1-.1c0-.1,0-.2.1-.2,0-.1.2-.1.2-.3.1-.1.1.4-.2.3ZM280.81,323.77c-.1,0-.1-.3-.1-.4.1,0,.1.1.3.2q-.2,0-.2.2ZM281.31,322.37c-.1.2-.2.4-.3.5-.2.1,0,.5-.4.5,0-.2.1-.4.2-.5h.2c0-.2,0-.6.3-.5,0-.1,0-.2.1-.2q0,.1,0,.2h-.1ZM298.41,337.93c.03-.1,0-.25-.04-.4.08-.1.16-.19.24-.29-.03.32,0,.63-.2.69ZM307.59,316q-.3,0-.3-.2c0,.1.4,0,.3.2ZM306.4,316.6c.2,0,.2.3.1.4-.3,0-.1-.2-.1-.4ZM305.21,318.99c-.2,0-.2-.2-.2-.3.4-.1.3.2.2.3ZM306.67,326.97c0-.22-.54-.32-.11-.54,1.49-5.16,4.48-8.82,8.12-11.85,1.07-.54,1.51.42,1.83,1.18.11.86-.1,1.5-.1,2.58-.75,1.94-1.92,3.34-2.56,5.17-3,2.91-4.7,7.11-8.99,8.63.64-1.83.74-3.76,1.81-5.16ZM304.02,320.69h.1c0-.2,0-.5.1-.6h.1c.1-.2.1-.6.5-.6-.1.3-.1.5-.5.6,0,.3-.1.4-.2.6v.4c-.3,0-.3-.3-.1-.4ZM301.68,325.91c-.21.26-.42.52-.53.88.19,0,0,.19,0,.29h0c-.1,0,0-.19-.1-.19,0,.07-.04.1-.1.13.09-.43,0-.73.3-1.24.19.09-.06.19-.01.28-.06.12-.13.23-.19.35.44-.26.56-.92.93-1.19-.1.23-.21.46-.31.69ZM302.4,324.31c-.22.3-.44.6-.65.91,0-.1-.02-.24-.1-.24,0,.14,0,.27.04.34-.05.07-.09.15-.14.22-.05.01-.09.04-.09.04,0,0,0,0,.07,0-.03.06-.07.11-.11.17,0-.05.02-.11.04-.17-.3-.1.3-.8.39-1.2.4,0-.1.3,0,.4.4-.4.39-1.2.59-1.7q.2-.1.6-.2c-.21.48-.43.95-.64,1.42ZM302.64,322.78c-.2-.2.3-.4.3-.6.3.2-.1.4-.3.6ZM303.13,321.69c.3,0,.4.1.4.5-.4,0-.4-.3-.4-.5ZM303.63,321.09c.2,0,.2.6,0,.5-.1-.3.1-.3,0-.5Z"/>
    <path class="cls-6" d="M324.05,340.63c.09-.28,0,.56,0,.66-.09.19,0-.47,0-.66ZM324.05,342.32c-.09,2.91,3.1,3.47,4.69,3.38.38-.56.28-.85.47-1.31.19-.09.19.19.56,0,.75-1.31.75-3.57,1.22-4.88v1.13c0,.56.09-.19.09-.37.28-1.13.28-1.88.56-2.91.19-.84.19-1.22.37-1.97,0,.28-.09.38.09.47,0-1.31.84-2.91.94-4.04,1.78-5.63,4.22-11.36,8.17-15.21.47-.09.47-.56,1.03-.56.09.38,0,.75.28,1.03.09-.28-.28-.47,0-.56.56,1.69.66,3.47.94,5.35.38-.56.84-.38.94-1.13.09,0,0,.28.19.28.19-.09,0-.47.19-.47.28-.09,0,.38.19.38.09-.28,0-.75.19-.84,0,.09-.09.47.19.38.09-.56.28-1.97.75-1.69,0-.09-.09-.56,0-.56.19,0,0,.47.19.47,0-.56-.09-.94.19-1.31-.28-4.04-6.01-5.16-8.82-3.1,0,.09.09.56-.09.56-.28-.09.19-.47-.09-.47-1.03,1.13-2.16,2.16-3.1,3.38.09.38-.28.47,0,.56,0-.09.09-.19.09,0h-.09c-.09.19-.09.56-.47.56-.19-.19.28-.38.28-.56-1.5,1.5-2.07,3.94-3.38,5.45.09-1.41-.37-2.25-.94-3.1-.56-.09-1.03,0-1.6-.47-.28.28-.38.37-.75,0-.56.47-1.31.75-1.88,1.13-.19.38.28.28.19.56-.56,5.91-1.22,11.55-1.6,18.03-.19-.09,0,.38-.19.28.28.47.19,1.88,0,2.16ZM324.14,337.25c-.09.28,0,.38-.09.84.09.09-.09.56.09.66v-.75c.09-.09.19-.66,0-.75ZM324.05,339.6,324.05,339.88,324.05,342.32,324.14,336.32c.19.09-.09.47.09.66-.09-.28.38-.66-.09-.66ZM324.33,340.07c0-.37.28-.75.19-1.03.19,0,.09.28.09.47.09.28-.09.19-.09.38,0,.38.09.84,0,.94-.19-.19,0-.66-.19-.75ZM324.33,341.39v-.19c.28-.19.28.28,0,.19ZM324.52,333.97c-.19.28-.28.66,0,1.03,0-.38.19-.84,0-1.03ZM324.52,333.31,324.52,338.1,324.61,338.76c-.09,0,0-.19-.09-.19.19-.09.19,0,.19.09q-.09,0-.09.09ZM324.52,342.04,324.71,337.63c-.38-.38,0-1.22,0-1.69.19.47-.09,1.03,0,1.69ZM324.71,335.1c0-.28.09-.38.09-.66.28-.19.09.66-.09.66ZM324.71,335.38,324.89,335.56c0,.09-.09.09-.19.09,0-.09.09-.09.19-.09ZM324.89,332.84,325.08,333.88c-.19,0-.19-.19-.19-.28.19,0,.19.09.19.28ZM325.08,331.34,325.18,329.93c-.09-.38.09-.38.09-.56.09,0,.19.66-.09.56ZM325.27,331.15c-.19-.38,0-.56-.09-.94.28,0,.09.66.09.94ZM325.36,328.62c-.19-.28.28-.84,0-1.22.56.09,0,.84,0,1.22ZM325.36,321.48,325.65,327.3c-.28,0,0-.19,0-.38.19.19-.19.28,0,.38ZM325.74,326.83c-.28-.09-.09-.56-.09-.75.28.09.09.28.09.75ZM325.74,325.61c.47-.09-.47.56,0,.09v-.09ZM325.83,324.3c.09-.38-.09-.38,0-.56.19,0,.19.56,0,.56.19.09.09.56-.09.56.09-.19.09-.38.09-.56ZM325.83,325.52c-.09-.09-.09-.28-.09-.47.28,0,.09.38.09.47ZM331.28,324.11c0,.19-.19.19-.28.19,0-.19.09-.19.28-.19ZM332.5,321.58,333.06,320.73c-.28,0-.09-.38.09-.28,0,.09-.09.19-.09.28ZM333.53,319.51c.09-.09.09-.28.28-.28-.09.09,0,.28-.28.28ZM333.81,319.23,335.03,317.35,336.54,315.66c0-.09.09,0,0,0,0,.19-.09.19,0,0ZM336.91,315.38,342.55,317.26,343.95,321.11"/>
    <path class="cls-6" d="M477.79,340.63c.09-.28,0,.56,0,.66-.09.19,0-.47,0-.66ZM477.79,342.32c-.09,2.91,3.1,3.47,4.69,3.38.38-.56.28-.85.47-1.31.19-.09.19.19.56,0,.75-1.31.75-3.57,1.22-4.88v1.13c0,.56.09-.19.09-.37.28-1.13.28-1.88.56-2.91.19-.84.19-1.22.37-1.97,0,.28-.09.38.09.47,0-1.31.84-2.91.94-4.04,1.78-5.63,4.23-11.36,8.17-15.21.47-.09.47-.56,1.03-.56.09.38,0,.75.28,1.03.09-.28-.28-.47,0-.56.56,1.69.66,3.47.94,5.35.38-.56.84-.38.94-1.13.09,0,0,.28.19.28.19-.09,0-.47.19-.47.28-.09,0,.38.19.38.09-.28,0-.75.19-.84,0,.09-.09.47.19.38.09-.56.28-1.97.75-1.69,0-.09-.09-.56,0-.56.19,0,0,.47.19.47,0-.56-.09-.94.19-1.31-.28-4.04-6.01-5.16-8.82-3.1,0,.09.09.56-.09.56-.28-.09.19-.47-.09-.47-1.03,1.13-2.16,2.16-3.1,3.38.09.38-.28.47,0,.56,0-.09.09-.19.09,0h-.09c-.09.19-.09.56-.47.56-.19-.19.28-.38.28-.56-1.5,1.5-2.07,3.94-3.38,5.45.09-1.41-.37-2.25-.94-3.1-.56-.09-1.03,0-1.6-.47-.28.28-.38.37-.75,0-.56.47-1.31.75-1.88,1.13-.19.38.28.28.19.56-.56,5.91-1.22,11.55-1.6,18.03-.19-.09,0,.38-.19.28.28.47.19,1.88,0,2.16ZM477.89,337.25c-.09.28,0,.38-.09.84.09.09-.09.56.09.66v-.75c.09-.09.19-.66,0-.75ZM477.79,339.6,477.79,339.88,477.79,342.32,477.89,336.32c.19.09-.09.47.09.66-.09-.28.38-.66-.09-.66ZM478.08,340.07c0-.37.28-.75.19-1.03.19,0,.09.28.09.47.09.28-.09.19-.09.38,0,.38.09.84,0,.94-.19-.19,0-.66-.19-.75ZM478.08,341.39v-.19c.28-.19.28.28,0,.19ZM478.26,333.97c-.19.28-.28.66,0,1.03,0-.38.19-.84,0-1.03ZM478.26,333.31,478.26,338.1,478.36,338.76c-.09,0,0-.19-.09-.19.19-.09.19,0,.19.09q-.09,0-.09.09ZM478.26,342.04,478.45,337.63c-.38-.38,0-1.22,0-1.69.19.47-.09,1.03,0,1.69ZM478.45,335.1c0-.28.09-.38.09-.66.28-.19.09.66-.09.66ZM478.45,335.38,478.64,335.56c0,.09-.09.09-.19.09,0-.09.09-.09.19-.09ZM478.64,332.84,478.83,333.88c-.19,0-.19-.19-.19-.28.19,0,.19.09.19.28ZM478.83,331.34,478.92,329.93c-.09-.38.09-.38.09-.56.09,0,.19.66-.09.56ZM479.01,331.15c-.19-.38,0-.56-.09-.94.28,0,.09.66.09.94ZM479.11,328.62c-.19-.28.28-.84,0-1.22.56.09,0,.84,0,1.22ZM479.11,321.48,479.39,327.3c-.28,0,0-.19,0-.38.19.19-.19.28,0,.38ZM479.48,326.83c-.28-.09-.09-.56-.09-.75.28.09.09.28.09.75ZM479.48,325.61c.47-.09-.47.56,0,.09v-.09ZM479.58,324.3c.09-.38-.09-.38,0-.56.19,0,.19.56,0,.56.19.09.09.56-.09.56.09-.19.09-.38.09-.56ZM479.58,325.52c-.09-.09-.09-.28-.09-.47.28,0,.09.38.09.47ZM485.02,324.11c0,.19-.19.19-.28.19,0-.19.09-.19.28-.19ZM486.24,321.58,486.81,320.73c-.28,0-.09-.38.09-.28,0,.09-.09.19-.09.28ZM487.28,319.51c.09-.09.09-.28.28-.28-.09.09,0,.28-.28.28ZM487.56,319.23,488.78,317.35,490.28,315.66c0-.09.09,0,0,0,0,.19-.09.19,0,0ZM490.66,315.38,496.29,317.26,497.7,321.11"/>
    <path class="cls-6" d="M447.43,319.66s-.11,1.71-.29,4.71c-.21,2.98-.52,7.24-1.09,12.33-.57,5.09-1.31,11.04-2.53,17.39-.6,3.18-1.93,13.78-5.47,19.88-.96,1.65-2.09,3.28-3.79,4.74-.87.71-1.89,1.44-3.44,1.81-.78.17-1.73.21-2.69-.09-.96-.28-1.83-.92-2.36-1.6-1.09-1.39-1.29-2.69-1.42-3.81-.1-1.13-.01-2.14.13-3.1.3-1.91.87-3.61,1.52-5.2l.25-.59.13-.29.06-.15.03-.07.07-.13c.18-.36.34-.69.54-1.06.23-.4.45-.79.68-1.18.23-.35.46-.71.69-1.06.95-1.37,1.97-2.61,3.03-3.74,2.11-2.25,4.32-4.08,6.43-5.63,10.82-8.12,16.16-8,16.96-7.31-8.04,4.29-11.05,6.78-14.76,10.04-1.84,1.63-3.73,3.51-5.43,5.66-.84,1.08-1.63,2.22-2.32,3.43-.16.3-.33.61-.49.92l-.41.88c-.14.32-.29.71-.43,1.07l-.05.14-.03.07c.06-.13,0-.02.02-.04v.03s-.1.26-.1.26l-.18.52c-.46,1.37-.83,2.79-.95,4.12-.06.66-.06,1.3.03,1.82.06.51.29.89.28.79,0-.03-.15-.18-.31-.23-.16-.06-.25-.05-.21-.06.09-.03.52-.26.91-.65.83-.77,1.65-1.98,2.35-3.27,1.41-2.6,2.35-5.67,3.2-8.76.81-3.1,1.46-6.24,2.01-9.31,1.07-6.14,1.84-11.95,2.39-16.95.54-5,.95-9.18,1.19-12.1.22-2.91.35-4.58.35-4.58v-.07c.14-1.72,1.63-3,3.35-2.87,1.7.13,2.28,1.6,2.18,3.3Z"/>
  </g>
  <g>
    <path class="cls-5" d="M155.66,211.29c-3.2-3.56-7.07-6.43-11.6-8.59-4.53-2.17-9.54-3.25-15.05-3.25s-10.31,1.03-14.84,3.09c-4.53,2.06-8.45,4.82-11.75,8.28-3.31,3.46-5.89,7.46-7.73,12-1.85,4.54-2.77,9.26-2.77,14.15s.89,9.5,2.66,14.04c1.78,4.54,4.27,8.58,7.47,12.1,3.2,3.53,7.07,6.38,11.6,8.54,4.53,2.17,9.54,3.25,15.05,3.25s10.31-1.05,14.84-3.14c4.53-2.1,8.43-4.87,11.7-8.33,3.27-3.46,5.83-7.46,7.68-12,1.84-4.54,2.77-9.26,2.77-14.15s-.87-9.29-2.61-13.83c-1.74-4.54-4.22-8.59-7.42-12.16ZM146.34,244.88c-.77,2.59-1.93,4.9-3.47,6.95-1.54,2.05-3.48,3.71-5.83,4.99-2.35,1.28-5.09,1.92-8.24,1.92s-5.69-.6-8.04-1.81c-2.35-1.21-4.31-2.82-5.88-4.84-1.57-2.02-2.76-4.32-3.57-6.9-.8-2.59-1.21-5.26-1.21-8.01s.38-5.32,1.16-7.91c.77-2.59,1.94-4.89,3.52-6.9,1.57-2.02,3.52-3.64,5.83-4.89,2.31-1.24,5.04-1.86,8.19-1.86s5.68.59,7.99,1.76c2.31,1.18,4.27,2.76,5.88,4.74,1.61,1.98,2.81,4.27,3.62,6.85.8,2.59,1.21,5.26,1.21,8.01s-.39,5.33-1.16,7.91ZM425.15,211.29c-3.2-3.56-7.07-6.43-11.6-8.59-4.53-2.17-9.54-3.25-15.05-3.25s-10.31,1.03-14.84,3.09c-4.53,2.06-8.45,4.82-11.75,8.28-3.31,3.46-5.89,7.46-7.73,12-1.85,4.54-2.77,9.26-2.77,14.15s.89,9.5,2.66,14.04c1.78,4.54,4.27,8.58,7.47,12.1,3.2,3.53,7.07,6.38,11.6,8.54,4.53,2.17,9.54,3.25,15.04,3.25s10.31-1.05,14.84-3.14c4.53-2.1,8.43-4.87,11.7-8.33,3.27-3.46,5.83-7.46,7.68-12,1.84-4.54,2.77-9.26,2.77-14.15s-.87-9.29-2.61-13.83c-1.74-4.54-4.22-8.59-7.42-12.16ZM415.83,244.88c-.77,2.59-1.93,4.9-3.47,6.95-1.54,2.05-3.48,3.71-5.83,4.99-2.35,1.28-5.09,1.92-8.24,1.92s-5.69-.6-8.04-1.81c-2.35-1.21-4.3-2.82-5.88-4.84-1.57-2.02-2.76-4.32-3.57-6.9-.8-2.59-1.21-5.26-1.21-8.01s.38-5.32,1.16-7.91c.77-2.59,1.94-4.89,3.52-6.9,1.57-2.02,3.52-3.64,5.83-4.89,2.31-1.24,5.04-1.86,8.19-1.86s5.68.59,7.99,1.76c2.31,1.18,4.27,2.76,5.88,4.74,1.61,1.98,2.81,4.27,3.62,6.85.8,2.59,1.21,5.26,1.21,8.01s-.39,5.33-1.16,7.91ZM221.88,256.94h-24.79v-48.13c0-4.94-3.99-8.95-8.92-8.95h-6.85s-5.51,0-5.51,0c-.64,0-.89.83-.36,1.18,2.35,1.56,3.74,4.15,3.77,7.39v65.83h51.59v-8.38c0-4.94-3.99-8.95-8.92-8.95ZM253.96,199.87h-6.86s-5.51,0-5.51,0c-.64,0-.89.83-.36,1.18,2.36,1.57,3.75,4.17,3.77,7.43v56.85c0,4.94,4,8.95,8.92,8.95h8.95v-65.45c0-4.94-3.99-8.95-8.92-8.95ZM338.76,199.87h-8.21v43.7l-30.32-38.31c-2.69-3.4-6.79-5.39-11.12-5.39h-4.41s-5.51,0-5.51,0c-.64,0-.89.83-.36,1.18,2.33,1.55,3.71,4.1,3.77,7.3v65.93h17.13v-41.06l29.27,36.77c2.16,2.71,5.42,4.29,8.88,4.29h9.81v-65.45c0-4.94-3.99-8.95-8.92-8.95ZM67.99,199.76h-8.48l-19.82,31.03-16.43-26.52c-1.74-2.8-4.79-4.51-8.09-4.51H1.86v74.41h8.21c4.93,0,8.92-4.01,8.92-8.95v-30.64l15.01,19.96c2.82,3.75,8.44,3.75,11.27,0l15.09-19.97v39.59h8.21c4.93,0,8.92-4.01,8.92-8.95v-55.91c0-5.27-4.26-9.55-9.52-9.55ZM501.71,243.56c-1.08-2.44-2.61-4.52-4.59-6.24-1.99-1.71-4.41-3.14-7.26-4.29-2.85-1.15-6.06-2.21-9.62-3.2-2.57-.7-4.84-1.32-6.79-1.89-1.95-.56-3.57-1.17-4.86-1.83-1.29-.66-2.26-1.42-2.93-2.25-.66-.84-.99-1.89-.99-3.14,0-4.12,3.06-6.18,9.19-6.18,2.23,0,4.46.31,6.69.94,2.22.63,4.28,1.36,6.16,2.21,1.88.84,3.45,1.63,4.7,2.41,1.17.72,1.89,1.22,2.15,1.51.03,0,.04,0,.07-.01l3.81-7.21c1.59-3.02,1.89-8.19-3.46-10.68-1.51-.67-3.1-1.29-4.77-1.85-2.3-.77-4.7-1.4-7.21-1.89-2.5-.49-5.05-.74-7.63-.74-3.69,0-7.19.52-10.5,1.57-3.31,1.05-6.22,2.61-8.72,4.66-2.51,2.07-4.49,4.59-5.96,7.6-1.47,3-2.19,6.46-2.19,10.37,0,2.8.4,5.24,1.2,7.34.8,2.1,2.02,3.95,3.66,5.55,1.63,1.6,3.71,3.02,6.22,4.24,2.5,1.23,5.47,2.36,8.88,3.41,2.58.77,4.97,1.46,7.16,2.1,2.19.63,4.09,1.31,5.69,2.04,1.6.74,2.86,1.56,3.76,2.46.9.91,1.36,2.06,1.36,3.46,0,3.7-3.03,5.55-9.09,5.55-2.86,0-5.68-.38-8.46-1.16-2.78-.77-5.3-1.66-7.57-2.62-.33-.14-.65-.28-.97-.43-4.39-2-9.58-.22-11.75,4.1l-3.19,6.34s.01.05.02.07c2.15,1.45,4.49,2.74,7.02,3.85,2.54,1.12,5.17,2.08,7.89,2.88,2.72.81,5.51,1.42,8.36,1.84,2.85.41,5.64.63,8.36.63,3.55,0,7-.4,10.34-1.21,3.35-.8,6.3-2.1,8.88-3.87,2.58-1.78,4.66-4.12,6.22-7.03,1.57-2.89,2.36-6.45,2.36-10.64,0-3.42-.54-6.35-1.62-8.8Z"/>
    <g>
      <path class="cls-2" d="M350.6,27c-10.38,10.71-31.05,13.22-48.84,6.49v79.01c0,6.5-5.25,11.76-11.73,11.76h-10.8v-52.03l-19.84,26.24c-3.72,4.92-11.1,4.91-14.81-.02l-19.73-26.23v40.27c0,6.5-5.25,11.76-11.73,11.76h-11.88c-.17-.02-.33-.03-.51-.03-2.4,0-4.34,1.95-4.34,4.36,0,1.25.52,2.37,1.36,3.16.15.18.32.35.51.51,3.81,3.23,27.71,18.45,53.87,18.45,80.76-2.19,112.02-74.43,98.46-123.71"/>
      <path class="cls-2" d="M306.11,19.21c-.23-.35-.52-.69-.87-.99-1.73-1.47-19.67-18.22-53.18-18.22-79.19,1.38-111.4,69.68-100.96,119,0,0,.84,3.6,1.15,4.74,10.62-10.96,32.03-13.34,50.08-6.01V26.47h17.48c4.33,0,8.36,2.24,10.64,5.93l21.59,34.84,21.81-34.19c.18-.3.37-.6.57-.89l3.6-5.64h6.14c.38-.03.75-.05,1.13-.05h17.45c2.39,0,4.45-1.88,4.49-4.28.02-1.14-.41-2.19-1.11-2.98ZM252.04,67.25h0s0,0,0,0h0Z"/>
      <path class="cls-4" d="M306.11,19.21c-.23-.35-.52-.69-.87-.99-1.73-1.47-19.67-18.22-53.18-18.22-79.19,1.38-111.4,69.68-100.96,119,0,0,.84,3.6,1.15,4.74,10.62-10.96,32.03-13.34,50.08-6.01V26.47h17.48c4.33,0,8.36,2.24,10.64,5.93l21.59,34.84,21.81-34.19c.18-.3.37-.6.57-.89l3.6-5.64h6.14c.38-.03.75-.05,1.13-.05h17.45c2.39,0,4.45-1.88,4.49-4.28.02-1.14-.41-2.19-1.11-2.98ZM252.04,67.25h0s0,0,0,0h0Z"/>
      <path class="cls-3" d="M350.6,27c-10.38,10.71-31.05,13.22-48.84,6.49v79.01c0,6.5-5.25,11.76-11.73,11.76h-10.8v-52.03l-19.84,26.24c-3.72,4.92-11.1,4.91-14.81-.02l-19.73-26.23v40.27c0,6.5-5.25,11.76-11.73,11.76h-11.88c-.17-.02-.33-.03-.51-.03-2.4,0-4.34,1.95-4.34,4.36,0,1.25.52,2.37,1.36,3.16.15.18.32.35.51.51,3.81,3.23,27.71,18.45,53.87,18.45,80.76-2.19,112.02-74.43,98.46-123.71"/>
      <path class="cls-2" d="M202.33,117.73V50.76c-3.23-.58-6.55-.91-9.95-.91-13.79,0-26.39,5.03-36.1,13.34-7.22,18.44-8.89,38.32-5.19,55.81,0,0,.84,3.6,1.15,4.74,10.62-10.96,32.03-13.34,50.08-6.01Z"/>
    </g>
  </g>
</svg>