<?xml version="1.0" encoding="UTF-8"?>
<svg id="Layer_2" data-name="Layer 2" xmlns="http://www.w3.org/2000/svg" xmlns:xlink="http://www.w3.org/1999/xlink" viewBox="0 0 204.46 150.7">
  <defs>
    <style>
      .cls-1 {
        fill: url(#linear-gradient-2);
      }

      .cls-2 {
        fill: #fff;
      }

      .cls-3 {
        fill: #e4262a;
      }

      .cls-4 {
        fill: url(#linear-gradient);
      }
    </style>
    <linearGradient id="linear-gradient" x1="62.25" y1="93.15" x2="109.06" y2="54.69" gradientTransform="translate(0 149.89) scale(1 -1)" gradientUnits="userSpaceOnUse">
      <stop offset=".12" stop-color="#e4262a"/>
      <stop offset=".65" stop-color="#bb2327"/>
      <stop offset=".97" stop-color="#a72327"/>
    </linearGradient>
    <linearGradient id="linear-gradient-2" x1="125.17" y1="70.24" x2="169.74" y2="13.68" gradientTransform="translate(0 149.89) scale(1 -1)" gradientUnits="userSpaceOnUse">
      <stop offset=".14" stop-color="#e4262a" stop-opacity="0"/>
      <stop offset=".22" stop-color="#e42c2f" stop-opacity=".03"/>
      <stop offset=".33" stop-color="#e63e3e" stop-opacity=".12"/>
      <stop offset=".47" stop-color="#ea5c56" stop-opacity=".26"/>
      <stop offset=".63" stop-color="#ef8678" stop-opacity=".46"/>
      <stop offset=".81" stop-color="#f5bba4" stop-opacity=".71"/>
      <stop offset="1" stop-color="#fdf9d6"/>
    </linearGradient>
  </defs>
  <g id="Capa_1" data-name="Capa 1">
    <rect class="cls-2" x="53.14" y="25.49" width="99.42" height="99.94"/>
    <path class="cls-3" d="M201.41,27c-10.38,10.71-31.05,13.22-48.84,6.49v79.01c0,6.5-5.25,11.76-11.73,11.76h-10.8v-52.03l-19.84,26.24c-3.72,4.92-11.1,4.91-14.81-.02l-19.73-26.23v40.27c0,6.5-5.25,11.76-11.73,11.76h-11.88c-.17-.02-.33-.03-.51-.03-2.4,0-4.34,1.95-4.34,4.36,0,1.25.52,2.37,1.36,3.16.15.18.32.35.51.51,3.81,3.23,27.71,18.45,53.87,18.45,80.76-2.19,112.02-74.43,98.46-123.71"/>
    <path class="cls-3" d="M156.92,19.21c-.23-.35-.52-.69-.87-.99-1.73-1.47-19.67-18.22-53.18-18.22C23.67,1.38-8.53,69.68,1.91,119c0,0,.84,3.6,1.15,4.74,10.62-10.96,32.03-13.34,50.08-6.01V26.47h17.48c4.33,0,8.36,2.24,10.64,5.93l21.59,34.84,21.81-34.19c.18-.3.37-.6.57-.89l3.6-5.64h6.14c.38-.03.75-.05,1.13-.05h17.45c2.39,0,4.45-1.88,4.49-4.28.02-1.14-.41-2.19-1.11-2.98h-.01Z"/>
    <path class="cls-4" d="M156.92,19.21c-.23-.35-.52-.69-.87-.99-1.73-1.47-19.67-18.22-53.18-18.22C23.67,1.38-8.53,69.68,1.91,119c0,0,.84,3.6,1.15,4.74,10.62-10.96,32.03-13.34,50.08-6.01V26.47h17.48c4.33,0,8.36,2.24,10.64,5.93l21.59,34.84,21.81-34.19c.18-.3.37-.6.57-.89l3.6-5.64h6.14c.38-.03.75-.05,1.13-.05h17.45c2.39,0,4.45-1.88,4.49-4.28.02-1.14-.41-2.19-1.11-2.98h-.01Z"/>
    <path class="cls-1" d="M201.41,27c-10.38,10.71-31.05,13.22-48.84,6.49v79.01c0,6.5-5.25,11.76-11.73,11.76h-10.8v-52.03l-19.84,26.24c-3.72,4.92-11.1,4.91-14.81-.02l-19.73-26.23v40.27c0,6.5-5.25,11.76-11.73,11.76h-11.88c-.17-.02-.33-.03-.51-.03-2.4,0-4.34,1.95-4.34,4.36,0,1.25.52,2.37,1.36,3.16.15.18.32.35.51.51,3.81,3.23,27.71,18.45,53.87,18.45,80.76-2.19,112.02-74.43,98.46-123.71"/>
    <path class="cls-3" d="M53.14,117.73V50.76c-3.23-.58-6.55-.91-9.95-.91-13.79,0-26.39,5.03-36.1,13.34C-.13,81.63-1.79,101.51,1.91,119c0,0,.84,3.6,1.15,4.74,10.62-10.96,32.03-13.34,50.08-6.01Z"/>
  </g>
</svg>